<svg xmlns="http://www.w3.org/2000/svg" xmlns:xlink="http://www.w3.org/1999/xlink" width="400" zoomAndPan="magnify" viewBox="0 0 300 299.999988" height="400" preserveAspectRatio="xMidYMid meet" version="1.0"><defs><clipPath id="917140681d"><path d="M 96 114 L 228.75 114 L 228.75 238.488281 L 96 238.488281 Z M 96 114 " clip-rule="nonzero"/></clipPath><clipPath id="b535583477"><path d="M 220 215 L 228.75 215 L 228.75 223 L 220 223 Z M 220 215 " clip-rule="nonzero"/></clipPath><clipPath id="68118fed32"><path d="M 146 65.238281 L 152 65.238281 L 152 71 L 146 71 Z M 146 65.238281 " clip-rule="nonzero"/></clipPath><clipPath id="6098114bd5"><path d="M 85 169 L 205 169 L 205 238.488281 L 85 238.488281 Z M 85 169 " clip-rule="nonzero"/></clipPath></defs><rect x="-30" width="360" fill="#ffffff" y="-29.999999" height="359.999986" fill-opacity="1"/><rect x="-30" width="360" fill="#ffffff" y="-29.999999" height="359.999986" fill-opacity="1"/><path fill="#004aad" d="M 78.832031 158.324219 L 56.703125 158.324219 L 65.867188 142.449219 L 66.085938 142.574219 L 57.136719 158.074219 L 78.394531 158.074219 L 67.660156 139.472656 L 67.875 139.347656 Z M 78.832031 158.324219 " fill-opacity="1" fill-rule="nonzero"/><path fill="#004aad" d="M 62.621094 140.789062 C 63.660156 138.988281 65.964844 138.371094 67.765625 139.410156 C 69.566406 140.453125 70.183594 142.753906 69.144531 144.554688 C 68.101562 146.359375 65.796875 146.976562 63.996094 145.933594 C 62.195312 144.890625 61.578125 142.589844 62.621094 140.789062 Z M 62.621094 140.789062 " fill-opacity="1" fill-rule="nonzero"/><path fill="#004aad" d="M 136.109375 173.4375 L 134.609375 74.335938 L 49.714844 125.074219 L 133.167969 171.585938 L 133.046875 171.804688 L 49.214844 125.082031 L 49.402344 124.96875 L 134.851562 73.894531 L 136.359375 173.4375 Z M 136.109375 173.4375 " fill-opacity="1" fill-rule="nonzero"/><path fill="#004aad" d="M 134.777344 168.3125 C 136.59375 169.324219 137.246094 171.621094 136.230469 173.4375 C 135.21875 175.257812 132.925781 175.910156 131.105469 174.894531 C 129.289062 173.882812 128.636719 171.585938 129.652344 169.769531 C 130.664062 167.949219 132.957031 167.300781 134.777344 168.3125 Z M 134.777344 168.3125 " fill-opacity="1" fill-rule="nonzero"/><path fill="#004aad" d="M 168.363281 148.832031 L 149.265625 67.34375 L 88.398438 124.480469 L 165.097656 147.648438 L 165.023438 147.890625 L 87.910156 124.59375 L 149.40625 66.863281 L 168.609375 148.773438 Z M 168.363281 148.832031 " fill-opacity="1" fill-rule="nonzero"/><path fill="#004aad" d="M 165.96875 144.109375 C 167.960938 144.710938 169.085938 146.8125 168.484375 148.804688 C 167.882812 150.796875 165.78125 151.921875 163.789062 151.324219 C 161.796875 150.722656 160.671875 148.617188 161.269531 146.625 C 161.871094 144.632812 163.976562 143.507812 165.96875 144.109375 Z M 165.96875 144.109375 " fill-opacity="1" fill-rule="nonzero"/><path fill="#004aad" d="M 207.5 179.679688 L 193.738281 78.003906 L 112.738281 140.625 L 204.355469 178.1875 L 204.261719 178.417969 L 112.242188 140.691406 L 112.410156 140.558594 L 193.929688 77.539062 L 207.746094 179.644531 Z M 207.5 179.679688 " fill-opacity="1" fill-rule="nonzero"/><path fill="#004aad" d="M 205.566406 174.746094 C 207.488281 175.535156 208.410156 177.738281 207.621094 179.660156 C 206.832031 181.585938 204.628906 182.507812 202.707031 181.71875 C 200.78125 180.929688 199.859375 178.726562 200.648438 176.804688 C 201.4375 174.878906 203.640625 173.957031 205.566406 174.746094 Z M 205.566406 174.746094 " fill-opacity="1" fill-rule="nonzero"/><g clip-path="url(#917140681d)"><path fill="#004aad" d="M 96.117188 238.546875 L 96.195312 238.347656 L 144.9375 114.121094 L 228.148438 218.445312 L 227.953125 218.601562 L 145.015625 114.613281 L 96.511719 238.234375 L 224.496094 218.933594 L 224.53125 219.179688 Z M 96.117188 238.546875 " fill-opacity="1" fill-rule="nonzero"/></g><g clip-path="url(#b535583477)"><path fill="#004aad" d="M 223.765625 215.359375 C 225.824219 215.050781 227.742188 216.46875 228.050781 218.523438 C 228.363281 220.582031 226.945312 222.5 224.886719 222.808594 C 222.832031 223.121094 220.910156 221.703125 220.601562 219.644531 C 220.292969 217.589844 221.710938 215.667969 223.765625 215.359375 Z M 223.765625 215.359375 " fill-opacity="1" fill-rule="nonzero"/></g><path fill="#004aad" d="M 85.820312 170.082031 L 48.664062 167.902344 L 48.679688 167.65625 L 85.402344 169.808594 L 69.003906 137.121094 L 50.742188 164.859375 L 50.535156 164.722656 L 69.03125 136.621094 Z M 85.820312 170.082031 " fill-opacity="1" fill-rule="nonzero"/><path fill="#004aad" d="M 53.890625 166.703125 C 52.746094 168.441406 50.410156 168.921875 48.671875 167.777344 C 46.933594 166.632812 46.453125 164.296875 47.597656 162.558594 C 48.742188 160.820312 51.078125 160.339844 52.816406 161.484375 C 54.554688 162.628906 55.035156 164.964844 53.890625 166.703125 Z M 53.890625 166.703125 " fill-opacity="1" fill-rule="nonzero"/><path fill="#004aad" d="M 134.199219 77.085938 C 137.261719 77.085938 137.269531 72.324219 134.199219 72.324219 C 131.132812 72.324219 131.132812 77.085938 134.199219 77.085938 Z M 134.199219 77.085938 " fill-opacity="1" fill-rule="nonzero"/><path fill="#004aad" d="M 101.015625 68.378906 L 100.453125 68.664062 C 100.175781 68.816406 99.953125 69.019531 99.785156 69.277344 C 99.574219 69.507812 99.429688 69.777344 99.359375 70.089844 C 99.257812 70.402344 99.246094 70.722656 99.316406 71.039062 C 99.332031 71.351562 99.421875 71.648438 99.597656 71.921875 L 99.972656 72.402344 C 100.269531 72.699219 100.617188 72.902344 101.019531 73.015625 L 101.65625 73.097656 C 102.082031 73.097656 102.484375 72.988281 102.855469 72.773438 L 103.417969 72.488281 C 103.695312 72.335938 103.917969 72.132812 104.085938 71.875 C 104.296875 71.644531 104.441406 71.375 104.511719 71.066406 C 104.613281 70.75 104.625 70.429688 104.554688 70.117188 C 104.539062 69.800781 104.449219 69.503906 104.273438 69.230469 L 103.898438 68.75 C 103.601562 68.453125 103.253906 68.253906 102.851562 68.140625 L 102.214844 68.054688 C 101.789062 68.054688 101.386719 68.164062 101.015625 68.378906 Z M 101.015625 68.378906 " fill-opacity="1" fill-rule="nonzero"/><g clip-path="url(#68118fed32)"><path fill="#004aad" d="M 149.195312 70.011719 C 152.257812 70.011719 152.261719 65.25 149.195312 65.25 C 146.125 65.25 146.125 70.011719 149.195312 70.011719 Z M 149.195312 70.011719 " fill-opacity="1" fill-rule="nonzero"/></g><path fill="#004aad" d="M 193.328125 80.480469 C 196.390625 80.480469 196.394531 75.71875 193.328125 75.71875 C 190.257812 75.71875 190.257812 80.480469 193.328125 80.480469 Z M 193.328125 80.480469 " fill-opacity="1" fill-rule="nonzero"/><path fill="#004aad" d="M 145.796875 117.257812 C 148.863281 117.257812 148.867188 112.496094 145.796875 112.496094 C 142.730469 112.496094 142.730469 117.257812 145.796875 117.257812 Z M 145.796875 117.257812 " fill-opacity="1" fill-rule="nonzero"/><path fill="#004aad" d="M 121.75 137.0625 C 124.8125 137.0625 124.820312 132.300781 121.75 132.300781 C 118.679688 132.300781 118.679688 137.0625 121.75 137.0625 Z M 121.75 137.0625 " fill-opacity="1" fill-rule="nonzero"/><path fill="#004aad" d="M 49.605469 128.007812 C 52.671875 128.007812 52.675781 123.25 49.605469 123.25 C 46.539062 123.25 46.539062 128.007812 49.605469 128.007812 Z M 49.605469 128.007812 " fill-opacity="1" fill-rule="nonzero"/><path fill="#004aad" d="M 88.367188 126.875 C 91.429688 126.875 91.433594 122.117188 88.367188 122.117188 C 85.296875 122.117188 85.296875 126.875 88.367188 126.875 Z M 88.367188 126.875 " fill-opacity="1" fill-rule="nonzero"/><g clip-path="url(#6098114bd5)"><path fill="#004aad" d="M 96.246094 238.773438 L 85.488281 169.964844 L 85.734375 169.925781 L 96.382812 238.011719 L 133.253906 171.683594 L 204.152344 178.109375 L 204.132812 178.359375 L 133.394531 171.949219 Z M 96.246094 238.773438 " fill-opacity="1" fill-rule="nonzero"/></g><path fill="#004aad" d="M 223.886719 219.164062 L 200.328125 126.644531 L 144.839844 114.464844 L 149.210938 67.09375 L 149.460938 67.113281 L 145.113281 114.269531 L 200.535156 126.433594 L 200.554688 126.507812 L 224.132812 219.101562 Z M 223.886719 219.164062 " fill-opacity="1" fill-rule="nonzero"/><path fill="#004aad" d="M 23.675781 154.851562 L 23.484375 154.6875 L 49.296875 125.082031 L 15 88.085938 L 15.183594 87.917969 L 49.632812 125.074219 Z M 23.675781 154.851562 " fill-opacity="1" fill-rule="nonzero"/><path fill="#004aad" d="M 99.949219 70.585938 L 99.976562 70.335938 L 134.738281 73.988281 L 134.714844 74.238281 Z M 99.949219 70.585938 " fill-opacity="1" fill-rule="nonzero"/></svg>