<svg xmlns="http://www.w3.org/2000/svg" xmlns:xlink="http://www.w3.org/1999/xlink" width="400" zoomAndPan="magnify" viewBox="0 0 300 299.999988" height="400" preserveAspectRatio="xMidYMid meet" version="1.0"><defs><clipPath id="69ac019f69"><path d="M 39.015625 203 L 51 203 L 51 216 L 39.015625 216 Z M 39.015625 203 " clip-rule="nonzero"/></clipPath><clipPath id="d5c78eed98"><path d="M 39.015625 207 L 49 207 L 49 217 L 39.015625 217 Z M 39.015625 207 " clip-rule="nonzero"/></clipPath></defs><rect x="-30" width="360" fill="#ffffff" y="-29.999999" height="359.999986" fill-opacity="1"/><rect x="-30" width="360" fill="#ffffff" y="-29.999999" height="359.999986" fill-opacity="1"/><g clip-path="url(#69ac019f69)"><path fill="#004aad" d="M 47.90625 215.121094 L 47.609375 215.0625 L 49.820312 204.265625 L 39.613281 207.667969 L 44.609375 212.097656 L 44.40625 212.324219 L 39.015625 207.542969 L 50.21875 203.808594 Z M 47.90625 215.121094 " fill-opacity="1" fill-rule="nonzero"/></g><g clip-path="url(#d5c78eed98)"><path fill="#004aad" d="M 47.371094 208.636719 C 49.257812 210.3125 49.433594 213.203125 47.757812 215.09375 C 46.082031 216.980469 43.191406 217.152344 41.304688 215.476562 C 39.414062 213.804688 39.242188 210.910156 40.917969 209.023438 C 42.59375 207.136719 45.484375 206.960938 47.371094 208.636719 Z M 47.371094 208.636719 " fill-opacity="1" fill-rule="nonzero"/></g><path fill="#004aad" d="M 184.265625 219.261719 L 153.320312 132.921875 L 94.1875 202.695312 L 180.167969 218.285156 L 180.113281 218.589844 L 93.617188 202.898438 L 93.789062 202.699219 L 153.429688 132.320312 L 153.515625 132.570312 L 184.554688 219.160156 Z M 184.265625 219.261719 " fill-opacity="1" fill-rule="nonzero"/><path fill="#004aad" d="M 180.730469 213.898438 C 183.210938 214.347656 184.863281 216.726562 184.410156 219.210938 C 183.957031 221.695312 181.578125 223.347656 179.097656 222.894531 C 176.613281 222.441406 174.960938 220.0625 175.414062 217.578125 C 175.863281 215.09375 178.246094 213.445312 180.730469 213.898438 Z M 180.730469 213.898438 " fill-opacity="1" fill-rule="nonzero"/><path fill="#004aad" d="M 125.503906 243.261719 L 125.203125 243.234375 L 128.441406 206.921875 L 95.613281 222.164062 L 121.886719 240.625 L 121.714844 240.875 L 95.007812 222.109375 L 128.792969 206.425781 Z M 125.503906 243.261719 " fill-opacity="1" fill-rule="nonzero"/><path fill="#004aad" d="M 124.242188 236.878906 C 126.308594 238.328125 126.804688 241.183594 125.355469 243.246094 C 123.90625 245.308594 121.050781 245.808594 118.988281 244.359375 C 116.921875 242.910156 116.425781 240.054688 117.875 237.988281 C 119.324219 235.925781 122.179688 235.425781 124.242188 236.878906 Z M 124.242188 236.878906 " fill-opacity="1" fill-rule="nonzero"/><path fill="#004aad" d="M 190.601562 252.1875 L 178.621094 110.925781 L 62.488281 191.78125 L 186.886719 250.191406 L 186.753906 250.464844 L 61.882812 191.832031 L 62.101562 191.679688 L 178.878906 110.375 L 178.902344 110.636719 L 190.902344 252.160156 Z M 190.601562 252.1875 " fill-opacity="1" fill-rule="nonzero"/><path fill="#004aad" d="M 188.558594 246.09375 C 190.84375 247.164062 191.824219 249.890625 190.75 252.175781 C 189.679688 254.460938 186.953125 255.441406 184.667969 254.371094 C 182.382812 253.296875 181.402344 250.574219 182.472656 248.285156 C 183.546875 246 186.269531 245.019531 188.558594 246.09375 Z M 188.558594 246.09375 " fill-opacity="1" fill-rule="nonzero"/><path fill="#004aad" d="M 256.371094 208.953125 L 204.996094 31.890625 L 77.523438 164.726562 L 252.335938 207.726562 L 252.261719 208.019531 L 76.9375 164.894531 L 77.121094 164.703125 L 205.140625 31.300781 L 205.214844 31.554688 L 256.660156 208.867188 Z M 256.371094 208.953125 " fill-opacity="1" fill-rule="nonzero"/><path fill="#004aad" d="M 253.167969 203.378906 C 255.617188 203.980469 257.121094 206.457031 256.515625 208.910156 C 255.914062 211.363281 253.4375 212.863281 250.984375 212.257812 C 248.53125 211.65625 247.035156 209.179688 247.636719 206.726562 C 248.238281 204.273438 250.714844 202.773438 253.167969 203.378906 Z M 253.167969 203.378906 " fill-opacity="1" fill-rule="nonzero"/><path fill="#004aad" d="M 102.125 269.992188 L 78.242188 141.019531 L 78.488281 141.109375 L 201.628906 184.734375 L 201.527344 185.019531 L 78.636719 141.480469 L 102.328125 269.417969 L 198.179688 187.582031 L 198.375 187.8125 Z M 102.125 269.992188 " fill-opacity="1" fill-rule="nonzero"/><path fill="#004aad" d="M 198.480469 183.292969 C 198.777344 183.316406 199.070312 183.371094 199.359375 183.453125 C 199.648438 183.535156 199.925781 183.644531 200.195312 183.78125 C 200.460938 183.917969 200.710938 184.078125 200.949219 184.265625 C 201.183594 184.453125 201.398438 184.660156 201.59375 184.890625 C 201.785156 185.117188 201.957031 185.363281 202.101562 185.625 C 202.25 185.890625 202.367188 186.164062 202.460938 186.449219 C 202.550781 186.734375 202.613281 187.027344 202.648438 187.324219 C 202.683594 187.625 202.6875 187.921875 202.664062 188.222656 C 202.640625 188.519531 202.585938 188.8125 202.503906 189.101562 C 202.421875 189.390625 202.3125 189.667969 202.175781 189.9375 C 202.035156 190.203125 201.875 190.453125 201.6875 190.691406 C 201.503906 190.925781 201.292969 191.140625 201.066406 191.335938 C 200.835938 191.527344 200.589844 191.699219 200.328125 191.84375 C 200.066406 191.992188 199.792969 192.109375 199.507812 192.203125 C 199.21875 192.292969 198.929688 192.355469 198.628906 192.390625 C 198.332031 192.425781 198.035156 192.429688 197.734375 192.40625 C 197.433594 192.382812 197.140625 192.328125 196.851562 192.246094 C 196.5625 192.164062 196.285156 192.054688 196.019531 191.917969 C 195.75 191.78125 195.5 191.617188 195.265625 191.429688 C 195.03125 191.246094 194.816406 191.035156 194.621094 190.808594 C 194.425781 190.578125 194.257812 190.332031 194.109375 190.070312 C 193.964844 189.808594 193.84375 189.535156 193.753906 189.25 C 193.660156 188.964844 193.597656 188.671875 193.5625 188.371094 C 193.53125 188.074219 193.523438 187.777344 193.550781 187.476562 C 193.574219 187.175781 193.628906 186.882812 193.710938 186.59375 C 193.792969 186.304688 193.902344 186.027344 194.039062 185.761719 C 194.175781 185.492188 194.335938 185.242188 194.523438 185.007812 C 194.710938 184.773438 194.917969 184.558594 195.148438 184.363281 C 195.375 184.167969 195.621094 184 195.882812 183.851562 C 196.144531 183.707031 196.421875 183.589844 196.707031 183.496094 C 196.992188 183.402344 197.285156 183.339844 197.582031 183.304688 C 197.878906 183.273438 198.179688 183.265625 198.480469 183.292969 Z M 198.480469 183.292969 " fill-opacity="1" fill-rule="nonzero"/><path fill="#004aad" d="M 155.539062 136.914062 C 160.039062 136.914062 160.042969 129.921875 155.539062 129.921875 C 151.03125 129.921875 151.03125 136.914062 155.539062 136.914062 Z M 155.539062 136.914062 " fill-opacity="1" fill-rule="nonzero"/><path fill="#004aad" d="M 207.039062 37 C 211.539062 37 211.546875 30.007812 207.039062 30.007812 C 202.535156 30.007812 202.535156 37 207.039062 37 Z M 207.039062 37 " fill-opacity="1" fill-rule="nonzero"/><path fill="#004aad" d="M 83.433594 165.757812 C 87.933594 165.757812 87.9375 158.765625 83.433594 158.765625 C 78.925781 158.765625 78.925781 165.757812 83.433594 165.757812 Z M 83.433594 165.757812 " fill-opacity="1" fill-rule="nonzero"/><path fill="#004aad" d="M 150.386719 235.800781 C 154.886719 235.800781 154.894531 228.808594 150.386719 228.808594 C 145.882812 228.808594 145.882812 235.800781 150.386719 235.800781 Z M 150.386719 235.800781 " fill-opacity="1" fill-rule="nonzero"/><path fill="#004aad" d="M 96.824219 207.988281 C 101.324219 207.988281 101.328125 200.996094 96.824219 200.996094 C 92.320312 200.996094 92.320312 207.988281 96.824219 207.988281 Z M 96.824219 207.988281 " fill-opacity="1" fill-rule="nonzero"/><path fill="#004aad" d="M 177.167969 117.34375 C 181.667969 117.34375 181.675781 110.351562 177.167969 110.351562 C 172.664062 110.351562 172.664062 117.34375 177.167969 117.34375 Z M 177.167969 117.34375 " fill-opacity="1" fill-rule="nonzero"/></svg>