<svg xmlns="http://www.w3.org/2000/svg" xmlns:xlink="http://www.w3.org/1999/xlink" width="400" zoomAndPan="magnify" viewBox="0 0 300 299.999988" height="400" preserveAspectRatio="xMidYMid meet" version="1.0"><defs><clipPath id="eab5a9b75a"><path d="M 15 70.359375 L 265.5 70.359375 L 265.5 233.859375 L 15 233.859375 Z M 15 70.359375 " clip-rule="nonzero"/></clipPath></defs><rect x="-30" width="360" fill="#ffffff" y="-29.999999" height="359.999986" fill-opacity="1"/><rect x="-30" width="360" fill="#ffffff" y="-29.999999" height="359.999986" fill-opacity="1"/><g clip-path="url(#eab5a9b75a)"><path fill="#004aad" d="M 265.425781 218.820312 L 265.222656 218.71875 C 265.191406 217.796875 264.4375 217.058594 263.507812 217.058594 C 263.132812 217.058594 262.789062 217.179688 262.507812 217.382812 L 234.195312 203.410156 C 234.292969 203.191406 234.351562 202.949219 234.351562 202.695312 C 234.351562 201.746094 233.582031 200.976562 232.632812 200.976562 C 232.160156 200.976562 231.730469 201.167969 231.421875 201.480469 L 177.734375 180.859375 C 177.738281 180.804688 177.742188 180.75 177.742188 180.695312 C 177.742188 179.746094 176.972656 178.976562 176.023438 178.976562 C 175.203125 178.976562 174.519531 179.550781 174.347656 180.316406 L 136.054688 172.839844 C 136.066406 172.75 136.078125 172.65625 136.078125 172.5625 C 136.078125 171.613281 135.308594 170.84375 134.359375 170.84375 C 133.933594 170.84375 133.542969 171 133.246094 171.257812 L 105.3125 140.476562 C 105.636719 140.164062 105.839844 139.726562 105.839844 139.242188 C 105.839844 138.292969 105.070312 137.523438 104.125 137.523438 C 103.675781 137.523438 103.273438 137.695312 102.96875 137.972656 L 73.539062 112.699219 C 73.65625 112.464844 73.722656 112.207031 73.722656 111.929688 C 73.722656 110.980469 72.953125 110.210938 72.003906 110.210938 C 71.699219 110.210938 71.414062 110.292969 71.164062 110.433594 L 20.066406 72.6875 C 20.136719 72.496094 20.179688 72.292969 20.179688 72.082031 C 20.179688 71.132812 19.410156 70.363281 18.460938 70.363281 C 17.511719 70.363281 16.742188 71.132812 16.742188 72.082031 C 16.742188 73.03125 17.511719 73.800781 18.460938 73.800781 C 18.464844 73.800781 18.46875 73.796875 18.472656 73.796875 L 20.070312 119.4375 C 19.171875 119.496094 18.460938 120.242188 18.460938 121.152344 C 18.460938 121.824219 18.847656 122.402344 19.410156 122.6875 L 16.789062 169.128906 C 16.773438 169.128906 16.757812 169.125 16.742188 169.125 C 15.792969 169.125 15.027344 169.894531 15.027344 170.84375 C 15.027344 171.792969 15.792969 172.5625 16.742188 172.5625 C 16.820312 172.5625 16.894531 172.554688 16.96875 172.546875 L 21.574219 201.007812 C 20.78125 201.160156 20.179688 201.859375 20.179688 202.695312 C 20.179688 203.59375 20.867188 204.328125 21.746094 204.40625 L 20.230469 230.246094 C 20.214844 230.242188 20.195312 230.242188 20.179688 230.242188 C 19.230469 230.242188 18.460938 231.011719 18.460938 231.960938 C 18.460938 232.910156 19.230469 233.675781 20.179688 233.675781 C 21.128906 233.675781 21.898438 232.910156 21.898438 231.960938 C 21.898438 231.871094 21.886719 231.78125 21.875 231.695312 L 52.277344 226.0625 C 52.441406 226.839844 53.132812 227.417969 53.957031 227.417969 C 54.902344 227.417969 55.667969 226.65625 55.671875 225.710938 L 56.042969 225.570312 L 91.867188 222.464844 C 91.964844 223.320312 92.691406 223.984375 93.574219 223.984375 C 94.453125 223.984375 95.179688 223.324219 95.277344 222.46875 L 148.160156 227.207031 C 148.152344 227.277344 148.148438 227.347656 148.148438 227.421875 C 148.148438 228.351562 148.890625 229.109375 149.8125 229.136719 L 149.816406 229.195312 L 214.359375 220.820312 C 214.488281 221.640625 215.199219 222.269531 216.054688 222.269531 C 217.003906 222.269531 217.773438 221.5 217.773438 220.550781 C 217.773438 220.546875 217.769531 220.542969 217.769531 220.539062 L 261.800781 218.953125 C 261.886719 219.820312 262.617188 220.496094 263.507812 220.496094 C 264.441406 220.496094 265.195312 219.753906 265.222656 218.828125 Z M 216.054688 218.832031 C 215.199219 218.832031 214.492188 219.457031 214.359375 220.277344 L 179.296875 211.761719 L 184.265625 209.046875 L 222.671875 213.640625 L 217.402344 219.488281 C 217.089844 219.089844 216.601562 218.832031 216.054688 218.832031 Z M 55.667969 225.605469 L 55.671875 225.605469 Z M 21.363281 230.71875 L 35.546875 213.535156 L 40.324219 216.984375 L 21.589844 230.984375 C 21.523438 230.886719 21.445312 230.800781 21.363281 230.71875 Z M 19.777344 73.179688 L 47.445312 96.035156 C 47.21875 96.328125 47.082031 96.691406 47.082031 97.089844 C 47.082031 97.460938 47.203125 97.800781 47.402344 98.082031 L 38.96875 105.238281 L 19.28125 73.589844 C 19.472656 73.484375 19.640625 73.347656 19.777344 73.179688 Z M 231.429688 203.925781 L 226.125 209.8125 L 197.660156 203.253906 C 197.683594 203.195312 197.699219 203.136719 197.710938 203.078125 C 203.890625 203.625 224.710938 203.007812 230.921875 202.804688 C 230.949219 203.242188 231.136719 203.636719 231.429688 203.925781 Z M 151.597656 205.035156 L 151.207031 204.941406 L 162.839844 204.304688 L 161.75 206.25 Z M 161.695312 206.34375 L 161.132812 207.351562 L 152.417969 205.234375 Z M 148.78125 226.089844 L 148.167969 225.378906 L 139.164062 207.636719 L 146.617188 205.191406 C 146.898438 205.75 147.476562 206.132812 148.144531 206.132812 C 148.167969 206.132812 148.191406 206.128906 148.214844 206.128906 L 149.578125 225.726562 C 149.277344 225.78125 149.003906 225.90625 148.78125 226.089844 Z M 148.609375 226.25 L 148.359375 225.753906 L 148.703125 226.15625 C 148.671875 226.1875 148.640625 226.21875 148.609375 226.25 Z M 92.214844 221.21875 L 85.554688 214.457031 L 93.589844 211.429688 L 93.535156 220.550781 C 92.996094 220.5625 92.519531 220.824219 92.214844 221.21875 Z M 85.480469 214.378906 L 81.03125 209.855469 L 89.34375 204.765625 L 93.621094 206.363281 L 93.59375 211.320312 Z M 53.957031 223.984375 C 53.640625 223.984375 53.347656 224.074219 53.09375 224.222656 L 46.894531 212.203125 L 52.3125 208.152344 L 54.484375 208.914062 L 54.082031 223.992188 C 54.039062 223.988281 53.996094 223.984375 53.957031 223.984375 Z M 22.871094 201.28125 L 32.167969 190.679688 L 42.039062 203.105469 C 41.710938 203.382812 41.492188 203.78125 41.445312 204.226562 L 23.609375 202.808594 C 23.609375 202.773438 23.613281 202.734375 23.613281 202.695312 C 23.613281 202.109375 23.316406 201.589844 22.871094 201.28125 Z M 48.800781 98.808594 L 48.527344 115.503906 L 45.671875 116.011719 L 39.023438 105.324219 L 47.460938 98.164062 C 47.777344 98.554688 48.257812 98.804688 48.800781 98.808594 Z M 134.359375 174.28125 C 134.40625 174.28125 134.453125 174.277344 134.5 174.273438 L 139.605469 185.566406 L 128.777344 187.167969 L 125.386719 180.484375 L 132.96875 173.570312 C 133.285156 174 133.789062 174.28125 134.359375 174.28125 Z M 194.335938 202.484375 L 163.015625 204.195312 L 170.835938 190.234375 L 194.6875 201.640625 C 194.5 201.878906 194.375 202.167969 194.335938 202.484375 Z M 170.792969 190.101562 L 166.945312 188.261719 L 174.566406 181.597656 C 174.722656 181.855469 174.945312 182.066406 175.214844 182.210938 Z M 138.832031 199.816406 L 146.585938 203.691406 C 146.484375 203.914062 146.425781 204.15625 146.425781 204.414062 C 146.425781 204.660156 146.480469 204.894531 146.570312 205.101562 L 139.117188 207.546875 L 135.945312 201.296875 Z M 135.902344 201.207031 L 133.957031 197.375 L 138.722656 199.757812 Z M 146.632812 203.601562 L 138.945312 199.757812 L 144.683594 196.8125 L 147.414062 202.859375 C 147.082031 203.015625 146.804688 203.277344 146.632812 203.601562 Z M 148.144531 202.695312 C 147.917969 202.695312 147.703125 202.742188 147.507812 202.820312 L 144.773438 196.765625 L 163.933594 186.933594 L 166.765625 188.285156 L 149.503906 203.371094 C 149.191406 202.960938 148.699219 202.695312 148.144531 202.695312 Z M 164.046875 186.875 L 174.507812 181.503906 C 174.507812 181.507812 174.511719 181.511719 174.511719 181.511719 L 166.847656 188.214844 Z M 174.464844 181.414062 L 163.933594 186.820312 L 161.726562 185.765625 L 174.335938 181.015625 C 174.363281 181.15625 174.40625 181.289062 174.464844 181.414062 Z M 163.820312 186.875 L 144.730469 196.675781 L 142.992188 192.824219 L 161.597656 185.816406 Z M 144.640625 196.71875 L 138.832031 199.703125 L 133.882812 197.226562 L 133.46875 196.410156 L 142.898438 192.859375 Z M 52.292969 208.039062 L 44.601562 205.335938 C 44.769531 205.070312 44.867188 204.753906 44.867188 204.414062 C 44.867188 204.246094 44.84375 204.085938 44.800781 203.933594 L 54.699219 200.738281 L 54.550781 206.351562 Z M 54.546875 206.480469 L 54.484375 208.808594 L 52.40625 208.082031 Z M 23.625 121.265625 L 23.675781 121.75 L 21.882812 121.367188 C 21.886719 121.324219 21.890625 121.28125 21.890625 121.238281 Z M 68.050781 194.929688 L 73.214844 170.882812 L 91.960938 178.386719 C 91.894531 178.570312 91.855469 178.769531 91.855469 178.976562 C 91.855469 179.375 91.992188 179.734375 92.214844 180.027344 L 69.035156 195.78125 C 68.832031 195.382812 68.476562 195.070312 68.050781 194.929688 Z M 44.132812 203.007812 L 48.664062 187.523438 L 54.964844 190.789062 L 54.703125 200.632812 L 44.769531 203.839844 C 44.648438 203.5 44.425781 203.210938 44.132812 203.007812 Z M 77.183594 151.941406 L 74.589844 164.011719 L 65.988281 157.253906 L 75.839844 151.101562 C 76.117188 151.570312 76.609375 151.894531 77.183594 151.941406 Z M 74.652344 164.191406 L 92.1875 177.96875 C 92.113281 178.066406 92.046875 178.175781 91.996094 178.292969 L 73.238281 170.785156 Z M 92.246094 177.886719 L 74.675781 164.082031 L 77.285156 151.945312 C 77.296875 151.945312 77.308594 151.949219 77.320312 151.949219 C 77.523438 151.949219 77.714844 151.910156 77.898438 151.847656 L 92.527344 177.617188 C 92.421875 177.695312 92.328125 177.785156 92.246094 177.886719 Z M 75.792969 151.011719 L 65.902344 157.1875 L 56.207031 149.570312 L 75.601562 150.222656 C 75.601562 150.226562 75.601562 150.230469 75.601562 150.230469 C 75.601562 150.511719 75.671875 150.777344 75.792969 151.011719 Z M 65.8125 157.246094 L 57.015625 162.742188 C 56.703125 162.34375 56.21875 162.089844 55.671875 162.089844 C 55.65625 162.089844 55.640625 162.089844 55.621094 162.09375 L 53.589844 149.480469 L 56.035156 149.5625 Z M 53.574219 149.378906 L 53.25 147.375 L 55.902344 149.457031 Z M 55.523438 162.097656 C 55.179688 162.125 54.867188 162.257812 54.613281 162.457031 L 43.535156 149.140625 L 53.488281 149.476562 Z M 55.640625 165.523438 L 54.96875 190.679688 L 48.695312 187.425781 L 55.128906 165.4375 C 55.289062 165.488281 55.460938 165.519531 55.640625 165.523438 Z M 55.035156 165.402344 L 48.601562 187.378906 L 39.296875 182.554688 L 54.578125 165.132812 C 54.714844 165.246094 54.867188 165.335938 55.035156 165.402344 Z M 55.0625 190.839844 L 65.792969 196.402344 C 65.789062 196.453125 65.785156 196.503906 65.785156 196.558594 C 65.785156 196.722656 65.808594 196.882812 65.851562 197.035156 L 54.804688 200.601562 Z M 65.808594 196.292969 L 55.066406 190.730469 L 55.738281 165.523438 C 55.945312 165.515625 56.144531 165.472656 56.324219 165.398438 L 66.785156 194.996094 C 66.269531 195.234375 65.894531 195.71875 65.808594 196.292969 Z M 57.078125 162.820312 L 65.898438 157.3125 L 74.566406 164.121094 L 73.140625 170.746094 L 57.285156 164.398438 C 57.351562 164.214844 57.390625 164.015625 57.390625 163.804688 C 57.390625 163.441406 57.273438 163.101562 57.078125 162.820312 Z M 93.882812 180.667969 C 94.441406 180.5625 94.90625 180.191406 95.136719 179.6875 L 114.875 187.964844 C 114.800781 188.15625 114.761719 188.363281 114.761719 188.582031 C 114.761719 188.625 114.765625 188.664062 114.765625 188.707031 L 93.8125 192.101562 Z M 114.914062 187.871094 L 95.175781 179.597656 C 95.25 179.40625 95.289062 179.195312 95.289062 178.980469 C 95.289062 178.304688 94.902344 177.726562 94.339844 177.445312 L 99 159.472656 L 115.042969 187.644531 C 114.992188 187.714844 114.953125 187.792969 114.914062 187.871094 Z M 98.964844 159.207031 L 98.625 158.609375 L 99.070312 158.785156 Z M 98.925781 159.34375 L 94.246094 177.398438 C 94.039062 177.308594 93.8125 177.261719 93.574219 177.261719 C 93.550781 177.261719 93.527344 177.261719 93.503906 177.261719 L 85.820312 153.558594 L 98.476562 158.550781 Z M 93.402344 177.269531 C 93.109375 177.296875 92.839844 177.398438 92.605469 177.558594 L 77.992188 151.8125 C 78.421875 151.628906 78.757812 151.277344 78.925781 150.839844 L 85.699219 153.511719 Z M 78.960938 150.746094 C 79.011719 150.582031 79.039062 150.410156 79.039062 150.230469 C 79.039062 150.019531 78.996094 149.816406 78.925781 149.628906 L 83.792969 147.632812 L 85.660156 153.386719 Z M 76.132812 148.992188 L 56.851562 128.921875 L 74.882812 132.765625 L 77.054688 148.535156 C 76.699219 148.589844 76.382812 148.753906 76.132812 148.992188 Z M 76.0625 149.0625 C 75.800781 149.34375 75.632812 149.714844 75.609375 150.121094 L 56.074219 149.464844 L 53.226562 147.230469 L 50.046875 127.472656 L 56.679688 128.886719 Z M 48.800781 122.867188 C 48.9375 122.867188 49.070312 122.851562 49.195312 122.820312 L 49.921875 127.34375 L 44.707031 126.234375 L 47.753906 122.511719 C 48.042969 122.734375 48.40625 122.867188 48.800781 122.867188 Z M 47.675781 122.445312 L 44.597656 126.210938 L 23.777344 121.773438 L 23.726562 121.269531 L 47.15625 121.640625 C 47.25 121.957031 47.433594 122.234375 47.675781 122.445312 Z M 44.636719 126.320312 L 49.941406 127.449219 L 53.109375 147.136719 L 37.582031 134.933594 Z M 50.027344 127.367188 L 49.292969 122.796875 C 49.664062 122.6875 49.980469 122.453125 50.199219 122.144531 L 56.554688 128.757812 Z M 48.460938 119.464844 C 48.277344 119.503906 48.101562 119.570312 47.945312 119.664062 L 45.726562 116.101562 L 48.523438 115.605469 Z M 47.859375 119.714844 C 47.390625 120.023438 47.085938 120.550781 47.085938 121.152344 C 47.085938 121.285156 47.101562 121.414062 47.128906 121.539062 L 23.714844 121.167969 L 23.597656 120.027344 L 45.621094 116.121094 Z M 21.867188 121.464844 L 23.683594 121.855469 L 23.925781 124.203125 L 21.472656 122.277344 C 21.671875 122.050781 21.808594 121.773438 21.867188 121.464844 Z M 23.789062 121.875 L 44.523438 126.296875 L 37.503906 134.875 L 24.035156 124.289062 Z M 37.519531 135.011719 L 53.136719 147.28125 L 53.472656 149.375 L 43.449219 149.035156 L 34.671875 138.492188 Z M 43.3125 149.035156 L 28.125 148.519531 C 28.125 148.519531 28.125 148.515625 28.125 148.511719 C 28.125 147.996094 27.894531 147.53125 27.535156 147.21875 L 34.609375 138.574219 Z M 28.121094 148.621094 L 43.398438 149.136719 L 54.535156 162.523438 C 54.363281 162.675781 54.222656 162.863281 54.121094 163.074219 L 27.785156 149.539062 C 27.976562 149.277344 28.097656 148.964844 28.121094 148.621094 Z M 54.503906 165.066406 L 39.203125 182.507812 L 35.792969 180.742188 L 31.828125 168.039062 L 53.984375 164.117188 C 54.050781 164.488281 54.238281 164.816406 54.503906 165.066406 Z M 39.136719 182.585938 L 37.097656 184.910156 L 35.835938 180.875 Z M 42.574219 202.796875 C 42.410156 202.859375 42.253906 202.941406 42.117188 203.046875 L 32.238281 190.601562 L 37.054688 185.113281 Z M 37.132812 185.023438 L 39.226562 182.632812 L 48.574219 187.476562 L 44.046875 202.949219 C 43.785156 202.792969 43.480469 202.699219 43.152344 202.699219 C 42.984375 202.699219 42.820312 202.722656 42.667969 202.765625 Z M 54.800781 200.707031 L 65.886719 197.128906 C 65.953125 197.324219 66.054688 197.503906 66.183594 197.65625 L 54.652344 206.277344 Z M 67.503906 194.839844 C 67.28125 194.839844 67.070312 194.882812 66.878906 194.957031 L 56.417969 165.355469 C 56.789062 165.175781 57.082031 164.871094 57.25 164.492188 L 73.121094 170.84375 L 67.953125 194.898438 C 67.808594 194.863281 67.660156 194.839844 67.503906 194.839844 Z M 69.078125 195.871094 L 92.277344 180.105469 C 92.589844 180.464844 93.054688 180.695312 93.574219 180.695312 C 93.644531 180.695312 93.710938 180.691406 93.78125 180.683594 L 93.710938 192.117188 L 69.15625 196.09375 C 69.132812 196.015625 69.109375 195.941406 69.078125 195.871094 Z M 93.8125 192.203125 L 114.777344 188.808594 C 114.789062 188.886719 114.804688 188.964844 114.824219 189.039062 L 93.75 201.949219 Z M 116.480469 190.300781 C 116.867188 190.300781 117.222656 190.167969 117.511719 189.953125 L 125.550781 199.285156 L 104 207.402344 L 115.730469 190.125 C 115.957031 190.234375 116.210938 190.300781 116.480469 190.300781 Z M 117.589844 189.890625 C 117.753906 189.75 117.890625 189.585938 117.992188 189.394531 L 132.523438 196.660156 L 125.652344 199.246094 Z M 118.035156 189.304688 C 118.105469 189.15625 118.152344 189 118.175781 188.835938 L 128.71875 187.277344 L 133.328125 196.355469 L 132.648438 196.609375 Z M 133.371094 196.445312 L 133.730469 197.152344 L 132.773438 196.671875 Z M 133.421875 196.320312 L 128.824219 187.261719 L 139.648438 185.664062 L 142.855469 192.769531 Z M 128.671875 187.183594 L 118.191406 188.734375 C 118.195312 188.683594 118.195312 188.632812 118.195312 188.582031 C 118.195312 188.140625 118.03125 187.742188 117.761719 187.441406 L 125.308594 180.554688 Z M 115.105469 187.554688 L 99.035156 159.332031 L 99.164062 158.824219 L 109.738281 162.996094 L 115.558594 187.132812 C 115.382812 187.242188 115.230469 187.386719 115.105469 187.554688 Z M 99.191406 158.726562 L 103.804688 140.929688 C 103.90625 140.949219 104.011719 140.957031 104.121094 140.957031 C 104.222656 140.957031 104.320312 140.949219 104.414062 140.933594 L 109.710938 162.875 Z M 103.707031 140.90625 L 99.097656 158.6875 L 98.542969 158.46875 L 90.75 144.777344 L 102.554688 139.9375 C 102.765625 140.417969 103.191406 140.777344 103.707031 140.90625 Z M 98.394531 158.410156 L 85.777344 153.433594 L 83.886719 147.59375 L 90.65625 144.816406 Z M 83.855469 147.5 L 79.390625 133.726562 L 85.023438 134.925781 L 90.605469 144.730469 Z M 83.761719 147.535156 L 78.890625 149.53125 C 78.621094 148.929688 78.019531 148.511719 77.320312 148.511719 C 77.265625 148.511719 77.207031 148.515625 77.152344 148.519531 L 74.988281 132.789062 L 79.277344 133.703125 Z M 74.972656 132.683594 L 74.554688 129.628906 L 78.351562 130.851562 L 79.238281 133.589844 Z M 74.871094 132.660156 L 56.730469 128.792969 L 50.257812 122.058594 C 50.296875 121.992188 50.335938 121.925781 50.367188 121.851562 L 74.449219 129.597656 Z M 50.40625 121.761719 C 50.476562 121.570312 50.519531 121.367188 50.519531 121.152344 C 50.519531 120.945312 50.480469 120.75 50.414062 120.566406 L 70.425781 112.609375 C 70.691406 113.21875 71.296875 113.644531 72.003906 113.644531 C 72.089844 113.644531 72.171875 113.636719 72.253906 113.625 L 74.433594 129.484375 Z M 70.390625 112.515625 L 50.378906 120.46875 C 50.113281 119.859375 49.507812 119.433594 48.800781 119.433594 C 48.722656 119.433594 48.640625 119.441406 48.5625 119.453125 L 48.625 115.589844 L 70.296875 111.746094 C 70.289062 111.804688 70.285156 111.867188 70.285156 111.925781 C 70.285156 112.132812 70.324219 112.332031 70.390625 112.515625 Z M 45.566406 116.027344 L 23.589844 119.925781 L 23.449219 118.546875 L 38.949219 105.390625 Z M 23.613281 121.164062 L 21.894531 121.136719 C 21.894531 120.855469 21.824219 120.59375 21.703125 120.359375 L 23.5 120.042969 Z M 21.40625 122.351562 L 23.9375 124.339844 L 24.085938 125.769531 L 21.3125 122.4375 C 21.34375 122.410156 21.375 122.382812 21.40625 122.351562 Z M 24.046875 124.429688 L 37.441406 134.953125 L 34.609375 138.414062 L 24.199219 125.90625 Z M 34.542969 138.492188 L 27.457031 147.152344 C 27.164062 146.929688 26.804688 146.796875 26.40625 146.796875 C 26.382812 146.796875 26.359375 146.796875 26.332031 146.800781 L 24.21875 126.082031 Z M 26.40625 150.230469 C 26.9375 150.230469 27.40625 149.992188 27.722656 149.617188 L 54.082031 163.164062 C 54 163.363281 53.957031 163.582031 53.957031 163.808594 C 53.957031 163.878906 53.960938 163.949219 53.96875 164.019531 L 31.796875 167.941406 L 26.269531 150.222656 C 26.3125 150.226562 26.359375 150.230469 26.40625 150.230469 Z M 31.699219 167.960938 L 24.632812 169.210938 L 26.246094 150.484375 Z M 31.730469 168.054688 L 35.667969 180.675781 L 24.160156 174.710938 L 24.625 169.3125 Z M 35.710938 180.808594 L 37.019531 185 L 32.171875 190.523438 L 23.714844 179.871094 L 24.148438 174.820312 Z M 44.539062 205.421875 L 52.199219 208.113281 L 46.847656 212.109375 L 43.710938 206.035156 C 44.046875 205.921875 44.335938 205.703125 44.539062 205.421875 Z M 54.179688 224 L 54.582031 208.949219 L 60.675781 211.089844 L 54.730469 224.171875 C 54.5625 224.085938 54.375 224.027344 54.179688 224 Z M 54.585938 208.84375 L 54.648438 206.402344 L 66.253906 197.730469 C 66.359375 197.84375 66.480469 197.941406 66.613281 198.023438 L 60.71875 211 Z M 69.09375 197.203125 L 89.222656 204.722656 L 80.957031 209.785156 L 68.910156 197.539062 C 68.984375 197.4375 69.042969 197.324219 69.09375 197.203125 Z M 89.453125 204.699219 L 93.648438 202.128906 L 93.625 206.257812 Z M 89.332031 204.65625 L 69.128906 197.109375 C 69.1875 196.933594 69.21875 196.75 69.21875 196.554688 C 69.21875 196.429688 69.207031 196.308594 69.179688 196.1875 L 93.710938 192.21875 L 93.648438 202.007812 Z M 93.722656 206.398438 L 100.21875 208.824219 L 93.691406 211.285156 Z M 93.722656 206.292969 L 93.75 202.066406 L 114.855469 189.140625 C 114.992188 189.539062 115.273438 189.875 115.640625 190.078125 L 103.835938 207.464844 L 100.363281 208.773438 Z M 103.738281 207.609375 L 102.425781 209.542969 L 100.503906 208.824219 Z M 103.898438 207.546875 L 125.621094 199.363281 L 129.871094 204.300781 L 112.402344 213.269531 L 102.519531 209.578125 Z M 125.722656 199.328125 L 132.644531 196.71875 L 133.808594 197.300781 L 135.8125 201.253906 L 129.964844 204.253906 Z M 135.855469 201.34375 L 139.023438 207.578125 L 134.195312 209.164062 L 130.035156 204.332031 Z M 139.070312 207.671875 L 147.894531 225.0625 L 134.265625 209.246094 Z M 149.835938 204.710938 L 150.523438 204.878906 L 150.355469 204.886719 L 149.8125 204.820312 C 149.820312 204.785156 149.828125 204.746094 149.835938 204.710938 Z M 149.851562 204.609375 C 149.859375 204.546875 149.863281 204.480469 149.863281 204.414062 C 149.863281 204.054688 149.753906 203.722656 149.566406 203.449219 L 166.863281 188.332031 L 170.742188 190.1875 L 162.898438 204.199219 L 150.867188 204.859375 Z M 162.960938 204.296875 L 194.328125 202.582031 C 194.324219 202.621094 194.320312 202.660156 194.320312 202.695312 C 194.320312 202.933594 194.367188 203.15625 194.453125 203.359375 L 184.246094 208.941406 L 161.859375 206.261719 Z M 194.753906 201.558594 L 170.882812 190.144531 L 175.304688 182.253906 C 175.523438 182.355469 175.765625 182.414062 176.023438 182.414062 C 176.449219 182.414062 176.839844 182.257812 177.136719 182 C 180.65625 185.878906 191.226562 197.53125 194.835938 201.46875 C 194.808594 201.5 194.78125 201.527344 194.753906 201.558594 Z M 174.320312 180.914062 L 161.605469 185.707031 L 156.351562 183.195312 L 174.3125 180.539062 C 174.308594 180.589844 174.304688 180.644531 174.304688 180.695312 C 174.304688 180.769531 174.3125 180.84375 174.320312 180.914062 Z M 161.472656 185.753906 L 142.949219 192.730469 L 139.75 185.648438 L 156.171875 183.21875 Z M 139.707031 185.554688 L 134.605469 174.261719 C 135.113281 174.1875 135.546875 173.894531 135.808594 173.480469 L 156.011719 183.144531 Z M 132.914062 173.488281 L 125.339844 180.394531 L 118.203125 166.332031 L 132.71875 172.058594 C 132.667969 172.21875 132.640625 172.386719 132.640625 172.5625 C 132.640625 172.902344 132.742188 173.21875 132.914062 173.488281 Z M 125.261719 180.464844 L 117.691406 187.367188 C 117.382812 187.054688 116.953125 186.863281 116.480469 186.863281 C 116.179688 186.863281 115.898438 186.941406 115.652344 187.074219 L 109.851562 163.039062 L 118.0625 166.277344 Z M 109.824219 162.917969 L 104.515625 140.914062 C 104.714844 140.867188 104.902344 140.785156 105.070312 140.675781 L 117.992188 166.144531 Z M 102.515625 139.84375 L 90.699219 144.691406 L 85.15625 134.953125 L 102.511719 138.652344 C 102.441406 138.835938 102.40625 139.035156 102.40625 139.242188 C 102.40625 139.453125 102.445312 139.65625 102.515625 139.84375 Z M 85.089844 134.839844 L 83.820312 132.609375 L 101.894531 138.421875 Z M 84.957031 134.808594 L 79.351562 133.617188 L 78.46875 130.886719 L 83.675781 132.5625 Z M 78.429688 130.769531 L 72.839844 113.53125 L 83.605469 132.433594 Z M 78.3125 130.734375 L 74.539062 129.519531 L 72.351562 113.609375 C 72.480469 113.582031 72.605469 113.542969 72.722656 113.488281 Z M 70.3125 111.640625 L 48.628906 115.488281 L 48.898438 98.800781 C 49.449219 98.769531 49.929688 98.484375 50.21875 98.058594 L 70.53125 111.046875 C 70.425781 111.226562 70.347656 111.425781 70.3125 111.640625 Z M 19.191406 73.632812 L 38.894531 105.304688 L 23.4375 118.425781 L 18.871094 73.746094 C 18.980469 73.71875 19.089844 73.683594 19.191406 73.632812 Z M 23.488281 119.941406 L 21.648438 120.269531 C 21.625 120.226562 21.597656 120.183594 21.566406 120.144531 L 23.355469 118.625 Z M 21.238281 122.503906 L 24.101562 125.945312 L 26.234375 146.804688 C 26.148438 146.8125 26.066406 146.828125 25.988281 146.847656 L 20.425781 122.851562 C 20.730469 122.804688 21.007812 122.683594 21.238281 122.503906 Z M 26.160156 150.210938 L 26.167969 150.234375 L 24.53125 169.226562 L 18.378906 170.316406 C 18.207031 169.792969 17.796875 169.382812 17.277344 169.210938 L 25.890625 150.152344 C 25.976562 150.179688 26.066406 150.199219 26.160156 150.210938 Z M 18.402344 170.414062 L 24.523438 169.332031 L 24.0625 174.660156 L 18.257812 171.652344 C 18.386719 171.414062 18.460938 171.136719 18.460938 170.84375 C 18.460938 170.695312 18.441406 170.550781 18.402344 170.414062 Z M 18.207031 171.738281 L 24.054688 174.769531 L 23.625 179.753906 L 17.6875 172.277344 C 17.898438 172.140625 18.074219 171.957031 18.207031 171.738281 Z M 23.703125 180.015625 L 32.105469 190.601562 L 22.78125 201.226562 C 22.523438 201.070312 22.222656 200.980469 21.898438 200.980469 Z M 23.601562 202.910156 L 41.4375 204.328125 C 41.4375 204.355469 41.433594 204.386719 41.433594 204.414062 C 41.433594 204.890625 41.628906 205.320312 41.941406 205.632812 L 35.527344 213.398438 L 22.757812 204.179688 C 23.210938 203.917969 23.53125 203.453125 23.601562 202.910156 Z M 35.609375 213.457031 L 42.015625 205.699219 C 42.316406 205.96875 42.714844 206.132812 43.152344 206.132812 C 43.3125 206.132812 43.46875 206.109375 43.617188 206.066406 L 46.765625 212.171875 L 40.40625 216.921875 Z M 46.808594 212.261719 L 53.003906 224.273438 C 52.601562 224.539062 52.320312 224.972656 52.253906 225.476562 L 40.492188 216.984375 Z M 54.820312 224.222656 L 60.769531 211.125 L 72.210938 215.144531 L 55.625 225.304688 C 55.515625 224.84375 55.21875 224.453125 54.820312 224.222656 Z M 60.8125 211.03125 L 66.699219 198.074219 C 66.9375 198.203125 67.210938 198.273438 67.503906 198.273438 C 68.050781 198.273438 68.535156 198.019531 68.847656 197.621094 L 80.871094 209.839844 L 72.320312 215.078125 Z M 80.945312 209.910156 L 85.375 214.417969 L 78.167969 217.128906 L 72.441406 215.117188 Z M 85.453125 214.496094 L 92.152344 221.300781 C 92.023438 221.492188 91.929688 221.714844 91.886719 221.949219 L 78.316406 217.183594 Z M 93.691406 211.390625 L 100.363281 208.878906 L 102.367188 209.628906 L 94.675781 220.953125 C 94.390625 220.714844 94.03125 220.566406 93.632812 220.554688 Z M 95.273438 222.039062 L 95.390625 222 L 95.277344 222.058594 C 95.273438 222.050781 95.273438 222.046875 95.273438 222.039062 Z M 95.257812 221.9375 C 95.1875 221.578125 95.007812 221.261719 94.75 221.019531 L 102.460938 209.664062 L 112.28125 213.328125 L 95.957031 221.707031 Z M 112.410156 213.378906 L 116.589844 214.9375 L 96.570312 221.507812 Z M 112.53125 213.316406 L 129.941406 204.378906 L 134.09375 209.195312 L 116.742188 214.890625 Z M 134.164062 209.277344 L 148.082031 225.433594 L 148.535156 226.328125 C 148.449219 226.433594 148.375 226.550781 148.316406 226.675781 L 116.894531 214.945312 Z M 148.3125 206.125 C 148.976562 206.058594 149.523438 205.617188 149.75 205.019531 L 150.351562 204.984375 L 151.582031 205.132812 L 161.085938 207.441406 L 150.726562 225.9375 C 150.472656 225.789062 150.179688 225.703125 149.863281 225.703125 C 149.800781 225.703125 149.738281 225.707031 149.675781 225.714844 Z M 150.8125 225.988281 L 161.183594 207.464844 L 179.023438 211.796875 L 151.484375 226.855469 C 151.359375 226.496094 151.121094 226.195312 150.8125 225.988281 Z M 161.234375 207.375 L 161.804688 206.359375 L 184.09375 209.027344 L 179.152344 211.726562 Z M 184.417969 208.960938 L 194.496094 203.453125 C 194.777344 204.023438 195.359375 204.414062 196.039062 204.414062 C 196.753906 204.414062 197.371094 203.972656 197.628906 203.347656 L 226.046875 209.898438 L 222.753906 213.550781 Z M 226.160156 209.921875 L 261.90625 218.160156 C 261.894531 218.183594 261.886719 218.207031 261.878906 218.234375 L 222.875 213.566406 Z M 262.417969 217.449219 C 262.214844 217.613281 262.054688 217.828125 261.945312 218.066406 L 226.238281 209.839844 L 231.507812 203.992188 C 231.808594 204.253906 232.203125 204.414062 232.632812 204.414062 C 233.292969 204.414062 233.863281 204.042969 234.152344 203.5 Z M 231.347656 201.558594 C 231.078125 201.863281 230.914062 202.261719 230.914062 202.695312 C 230.914062 202.699219 230.914062 202.703125 230.914062 202.703125 C 224.757812 202.898438 203.832031 203.515625 197.730469 202.988281 C 197.746094 202.894531 197.753906 202.796875 197.753906 202.695312 C 197.753906 201.75 196.988281 200.980469 196.039062 200.980469 C 195.605469 200.980469 195.214844 201.140625 194.910156 201.402344 C 191.304688 197.464844 180.730469 185.8125 177.210938 181.933594 C 177.476562 181.679688 177.65625 181.34375 177.71875 180.964844 Z M 174.332031 180.417969 C 174.328125 180.421875 174.328125 180.429688 174.328125 180.4375 L 156.191406 183.117188 L 135.863281 173.394531 C 135.941406 173.253906 136 173.101562 136.035156 172.941406 Z M 133.171875 171.324219 C 132.988281 171.503906 132.84375 171.71875 132.753906 171.964844 L 118.136719 166.199219 L 105.152344 140.613281 C 105.183594 140.59375 105.210938 140.570312 105.238281 140.546875 Z M 102.894531 138.042969 C 102.753906 138.183594 102.644531 138.347656 102.558594 138.527344 L 83.746094 132.480469 L 72.882812 113.402344 C 73.132812 113.253906 73.34375 113.042969 73.488281 112.789062 Z M 71.070312 110.488281 C 70.878906 110.613281 70.714844 110.773438 70.585938 110.960938 L 50.273438 97.972656 C 50.429688 97.710938 50.519531 97.410156 50.519531 97.089844 C 50.519531 96.140625 49.75 95.371094 48.800781 95.371094 C 48.285156 95.371094 47.824219 95.597656 47.511719 95.957031 L 19.839844 73.101562 C 19.914062 73.003906 19.976562 72.894531 20.027344 72.78125 Z M 18.570312 73.792969 C 18.640625 73.789062 18.707031 73.78125 18.773438 73.769531 L 23.34375 118.503906 L 21.507812 120.0625 C 21.191406 119.679688 20.714844 119.433594 20.179688 119.433594 C 20.175781 119.433594 20.171875 119.433594 20.167969 119.433594 Z M 19.507812 122.734375 C 19.714844 122.820312 19.941406 122.867188 20.179688 122.867188 C 20.226562 122.867188 20.277344 122.863281 20.324219 122.863281 L 25.890625 146.875 C 25.195312 147.09375 24.691406 147.746094 24.691406 148.511719 C 24.691406 149.246094 25.148438 149.871094 25.796875 150.117188 L 17.179688 169.183594 C 17.085938 169.160156 16.988281 169.140625 16.890625 169.132812 Z M 17.066406 172.53125 C 17.257812 172.492188 17.4375 172.425781 17.601562 172.332031 L 23.613281 179.902344 L 21.796875 200.984375 C 21.753906 200.988281 21.714844 200.988281 21.671875 200.996094 Z M 21.84375 204.414062 C 21.863281 204.414062 21.878906 204.414062 21.894531 204.414062 C 22.171875 204.414062 22.429688 204.347656 22.660156 204.234375 L 35.464844 213.476562 L 21.289062 230.652344 C 21.023438 230.429688 20.695312 230.285156 20.328125 230.25 Z M 21.855469 231.601562 C 21.816406 231.410156 21.742188 231.230469 21.644531 231.070312 L 40.410156 217.046875 L 52.242188 225.59375 C 52.242188 225.628906 52.238281 225.667969 52.238281 225.703125 C 52.238281 225.792969 52.246094 225.878906 52.261719 225.96875 Z M 56.015625 225.476562 L 55.660156 225.503906 C 55.65625 225.472656 55.652344 225.441406 55.644531 225.410156 L 72.332031 215.1875 L 78.023438 217.1875 Z M 56.386719 225.441406 L 78.171875 217.238281 L 91.871094 222.050781 C 91.859375 222.121094 91.855469 222.195312 91.855469 222.269531 C 91.855469 222.300781 91.859375 222.332031 91.859375 222.367188 Z M 95.285156 222.371094 C 95.285156 222.335938 95.289062 222.300781 95.289062 222.269531 C 95.289062 222.234375 95.289062 222.199219 95.285156 222.167969 L 96 221.800781 L 116.742188 214.996094 L 148.273438 226.769531 C 148.230469 226.875 148.195312 226.988281 148.175781 227.105469 Z M 150.539062 229 C 151.152344 228.738281 151.578125 228.128906 151.578125 227.421875 C 151.578125 227.257812 151.554688 227.101562 151.511719 226.953125 L 179.164062 211.835938 L 214.34375 220.378906 C 214.335938 220.433594 214.335938 220.492188 214.335938 220.550781 C 214.335938 220.609375 214.335938 220.667969 214.34375 220.722656 Z M 217.765625 220.4375 C 217.746094 220.117188 217.636719 219.820312 217.464844 219.570312 L 222.792969 213.65625 L 261.847656 218.332031 C 261.8125 218.472656 261.789062 218.621094 261.789062 218.777344 C 261.789062 218.800781 261.792969 218.824219 261.792969 218.851562 Z M 217.765625 220.4375 " fill-opacity="1" fill-rule="nonzero"/></g></svg>