<svg id="Layer_1" data-name="Layer 1" xmlns="http://www.w3.org/2000/svg" viewBox="0 0 332.98 92.79"><defs><style>.cls-1{fill:#22449c;}</style></defs><path class="cls-1" d="M15.69,22.2,5.86,9.29V22.2H1.45V1.89H5.57l9.51,12.5V1.89h4.41V22.2Z"/><path class="cls-1" d="M39.47,22.2l-1.85-4.56H29L27.17,22.2H22.62l8.7-20.45h4.12l8.7,20.45ZM33.32,7.11,30.63,13.7H36Z"/><path class="cls-1" d="M59.37,22.2l-4.56-7-4.58,7H45.15l7.08-10.33-6.79-10h5.22l4.27,6.58,4.29-6.58H64.3l-6.79,9.92L64.59,22.2Z"/><path class="cls-1" d="M67,12.07A10.33,10.33,0,0,1,77.61,1.54a10.47,10.47,0,0,1,8,3.13L82.77,8a7.5,7.5,0,0,0-5.19-2.29c-3.43,0-5.89,2.84-5.89,6.35s2.41,6.41,5.89,6.41a7.34,7.34,0,0,0,5.34-2.37l2.84,2.87a10.21,10.21,0,0,1-7.57,3.59l-1.89,4.7-3.68-1.53,2.32-3.43A10.22,10.22,0,0,1,67,12.07Z"/><path class="cls-1" d="M89.52,22.2V1.89H94V22.2Z"/><path class="cls-1" d="M109.48,22.34h-4L97.32,1.89h4.93l5.31,14.3,5.31-14.3h4.82Z"/><path class="cls-1" d="M133,22.2l-1.86-4.56h-8.59l-1.85,4.56h-4.56l8.71-20.45H129l8.7,20.45ZM126.88,7.11l-2.7,6.59h5.4Z"/><path class="cls-1" d="M155.07,22.2,145.23,9.29V22.2h-4.41V1.89h4.12l9.52,12.5V1.89h4.41V22.2Z"/><path class="cls-1" d="M180.29,16.1H176.9v6.1h-4.47V1.89h8.3c4.84,0,7.77,2.87,7.77,7V9C188.5,13.67,184.85,16.1,180.29,16.1ZM184,9c0-2-1.39-3.08-3.63-3.08H176.9v6.21h3.54c2.23,0,3.54-1.33,3.54-3.08Z"/><path class="cls-1" d="M201.67,22.54A10.4,10.4,0,0,1,190.91,12.1V12a10.79,10.79,0,0,1,21.58,0v0A10.5,10.5,0,0,1,201.67,22.54ZM207.82,12a6.17,6.17,0,0,0-6.15-6.38A6.07,6.07,0,0,0,195.58,12v0a6.17,6.17,0,0,0,6.15,6.38,6.07,6.07,0,0,0,6.09-6.32Z"/><path class="cls-1" d="M215.56,12.07A10.33,10.33,0,0,1,226.14,1.54a10.51,10.51,0,0,1,8,3.13L231.31,8a7.52,7.52,0,0,0-5.2-2.29c-3.42,0-5.88,2.84-5.88,6.35s2.4,6.41,5.88,6.41a7.32,7.32,0,0,0,5.34-2.37l2.84,2.87a10.2,10.2,0,0,1-7.57,3.59l-1.88,4.7-3.69-1.53,2.32-3.43A10.21,10.21,0,0,1,215.56,12.07Z"/><path class="cls-1" d="M247.05,6V22.2h-4.47V6h-6.17V1.89h16.82V6Z"/><path class="cls-1" d="M275.76,22.34h-3.94L263.61,1.89h4.93l5.31,14.3,5.31-14.3H284Z"/><path class="cls-1" d="M10.65,40.81V57H6.18V40.81H0V36.69H16.82v4.12Z"/><path class="cls-1" d="M20.24,57V36.69H35.56v4H24.68v4.12h9.57v4H24.68V53h11v4Z"/><path class="cls-1" d="M39.67,57V36.69h4.47V52.93H54.26V57Z"/><path class="cls-1" d="M57.62,57V36.69H72.94v4H62.06v4.12h9.57v4H62.06V53h11v4Z"/><path class="cls-1" d="M90.16,57l-6.29-8.65-2.35,2.44V57H77.05V36.69h4.47v8.88l8.24-8.88h5.39l-8.27,8.62L95.53,57Z"/><path class="cls-1" d="M106.49,57.34A10.4,10.4,0,0,1,95.73,46.9v-.06a10.79,10.79,0,0,1,21.58-.06v.06A10.5,10.5,0,0,1,106.49,57.34Zm6.15-10.5a6.17,6.17,0,0,0-6.15-6.38,6.07,6.07,0,0,0-6.09,6.32v.06a6.17,6.17,0,0,0,6.15,6.38,6.07,6.07,0,0,0,6.09-6.32Z"/><path class="cls-1" d="M137.14,57V43.74l-5.71,8.67h-.12l-5.65-8.58V57h-4.38V36.69h4.81l5.34,8.59,5.34-8.59h4.81V57Z"/><path class="cls-1" d="M162.32,57V43.74l-5.72,8.67h-.12l-5.65-8.58V57h-4.38V36.69h4.81l5.34,8.59,5.34-8.59h4.81V57Z"/><path class="cls-1" d="M180.09,57.31c-5.45,0-8.79-3-8.79-9V36.69h4.47V48.18c0,3.3,1.65,5,4.38,5s4.38-1.66,4.38-4.88V36.69H189V48.15C189,54.3,185.54,57.31,180.09,57.31Z"/><path class="cls-1" d="M207.79,57,198,44.09V57h-4.41V36.69h4.12l9.52,12.5V36.69h4.41V57Z"/><path class="cls-1" d="M238.27,57,232,48.35l-2.35,2.44V57h-4.47V36.69h4.47v8.88l8.24-8.88h5.39L235,45.31,243.63,57Z"/><path class="cls-1" d="M260.86,57,259,52.44h-8.59L248.56,57H244l8.71-20.46h4.12L265.53,57Zm-6.15-15.09L252,48.5h5.4Z"/><path class="cls-1" d="M275.59,57.29A13,13,0,0,1,267,54l2.64-3.16a9.35,9.35,0,0,0,6.06,2.46c1.83,0,2.93-.72,2.93-1.91v-.06c0-1.13-.69-1.71-4.09-2.58-4.09-1-6.72-2.18-6.72-6.21v-.06c0-3.68,2.95-6.12,7.1-6.12A11.77,11.77,0,0,1,282.43,39l-2.32,3.37a9.53,9.53,0,0,0-5.28-2c-1.71,0-2.61.79-2.61,1.77v.06c0,1.34.87,1.77,4.38,2.67,4.12,1.07,6.44,2.55,6.44,6.09V51C283,55,280,57.29,275.59,57.29Z"/><path class="cls-1" d="M305.81,48.9V57h-4.47V49l-7.8-12.3h5.22l4.84,8.15,4.93-8.15h5.08Z"/><path class="cls-1" d="M328.31,57l-1.86-4.56h-8.58L316,57h-4.55l8.7-20.46h4.12L333,57Zm-6.15-15.09-2.7,6.59h5.4Z"/><path class="cls-1" d="M17.32,91.79V78.54L11.6,87.21h-.11L5.83,78.63V91.79H1.45V71.49H6.27l5.33,8.59,5.34-8.59h4.81v20.3Z"/><path class="cls-1" d="M60.79,91.79,56.43,85.3H52.92v6.49H48.46V71.49h9.28c4.79,0,7.66,2.52,7.66,6.7v.06a6.29,6.29,0,0,1-4.35,6.29l5,7.25Zm.08-13.37c0-1.91-1.33-2.9-3.51-2.9H52.92v5.83h4.53c2.18,0,3.42-1.16,3.42-2.87Z"/><path class="cls-1" d="M82,91.79l-6.3-8.64-2.35,2.44v6.2H68.87V71.49h4.47v8.88l8.24-8.88H87l-8.26,8.62,8.64,11.68Z"/><path class="cls-1" d="M111.47,91.79V88.4l11.17-13H111.82V71.49h16.56v3.39l-11.16,13h11.16v3.91Z"/><path class="cls-1" d="M293.92,1.54a10,10,0,0,0-7.9,3.7l3.5,2.5a5.36,5.36,0,0,1,4.4-2.1,5.77,5.77,0,0,1,5.6,4.7h-15.8v2.4h0a14.6,14.6,0,0,0,.3,2.2,9.92,9.92,0,0,0,9.8,7.6A10.18,10.18,0,0,0,304,12v-.1A10,10,0,0,0,293.92,1.54Zm0,16.9a5.56,5.56,0,0,1-5.2-3.5h10.4A5.71,5.71,0,0,1,293.92,18.44Z"/><path class="cls-1" d="M97.91,71.79a10,10,0,0,0-7.9,3.7l3.5,2.5a5.36,5.36,0,0,1,4.4-2.1,5.77,5.77,0,0,1,5.6,4.7H87.71V83h0a14.6,14.6,0,0,0,.3,2.2,9.92,9.92,0,0,0,9.8,7.6A10.18,10.18,0,0,0,108,82.29v-.1A10,10,0,0,0,97.91,71.79Zm0,16.9a5.56,5.56,0,0,1-5.2-3.5h10.4A5.71,5.71,0,0,1,97.91,88.69Z"/><path class="cls-1" d="M35.36,71.79a10,10,0,0,0-7.9,3.7L31,78a5.36,5.36,0,0,1,4.4-2.1,5.77,5.77,0,0,1,5.6,4.7H25.16V83h0a14.6,14.6,0,0,0,.3,2.2,9.92,9.92,0,0,0,9.8,7.6,10.18,10.18,0,0,0,10.2-10.5v-.1A10,10,0,0,0,35.36,71.79Zm0,16.9a5.56,5.56,0,0,1-5.2-3.5h10.4A5.71,5.71,0,0,1,35.36,88.69Z"/><path class="cls-1" d="M215.36,36.54h4.53V57h-4.53Zm0-5.23h4.33V35h-4.33Z"/><path class="cls-1" d="M132.82,71.34h4.54V91.79h-4.54Zm0-5.24h4.34v3.73h-4.34Z"/><path class="cls-1" d="M286.29,36.77h4.56V57.34h-4.56Zm0-5.27h4.36v3.75h-4.36Z"/></svg>