<svg width="20" height="24" viewBox="0 0 20 24" fill="none" xmlns="http://www.w3.org/2000/svg">
<path fill-rule="evenodd" clip-rule="evenodd" d="M18.257 6.62263C19.0851 6.50043 19.8572 7.06302 19.9831 7.88155C20.1068 8.70007 19.5376 9.46326 18.7095 9.58547C18.1264 9.67308 17.5689 9.41715 17.2494 8.97215C16.4166 9.18658 15.6889 9.50938 15.0358 9.94516C14.4643 10.3256 13.9464 10.796 13.4566 11.3586C13.5709 11.46 13.6829 11.5707 13.7878 11.6883C13.7855 11.8151 13.6899 11.9972 13.6012 12.101C11.2173 15.0223 9.07137 19.6614 8.35527 24.7455C8.28996 25.2159 8.23631 25.6886 8.19432 26.1635H6.98138C7.0257 25.6332 7.08402 25.1075 7.15866 24.5841C7.85843 19.6361 9.85978 15.0846 12.1527 12.0042L12.12 11.9811C12.0197 11.905 11.9474 11.8082 11.9054 11.6998L10.7462 11.015C10.6832 10.9943 10.6202 10.962 10.5642 10.9228C10.5409 10.9066 10.5199 10.8882 10.5012 10.8697L7.42457 9.05054C4.40856 12.5391 2.62181 16.9614 1.77275 21.4852C1.47885 23.0462 1.29458 24.6164 1.2106 26.1658H0C0.0863051 24.5449 0.275243 22.9009 0.583143 21.2685C1.49984 16.3942 3.46387 11.6237 6.82743 7.90691C7.01637 7.67864 7.3476 7.61408 7.60885 7.76857L7.69049 7.81699C7.99605 7.14602 8.21298 6.45201 8.35527 5.74185C8.49056 5.06166 8.5582 4.36764 8.56287 3.6621C8.01471 3.47995 7.58785 3.00958 7.49455 2.40548C7.36393 1.54776 7.96106 0.745372 8.83111 0.616252C9.69883 0.487133 10.5106 1.07739 10.6412 1.93742C10.7392 2.58533 10.4219 3.20095 9.88777 3.51914C9.89243 4.36534 9.82012 5.19078 9.65917 5.99317C9.4889 6.84859 9.21832 7.68326 8.83344 8.49717L9.21599 8.72544C10.1164 7.61408 10.8604 6.38053 11.4529 5.0363C12.0361 3.71513 12.4769 2.28559 12.7848 0.752289C12.3953 0.519413 12.1084 0.12283 12.0361 -0.359063C11.9054 -1.21679 12.5026 -2.01917 13.3726 -2.14829C14.2403 -2.27741 15.0521 -1.68715 15.1827 -0.827123C15.2993 -0.0570152 14.8305 0.666978 14.1051 0.902161C13.7762 2.56919 13.3027 4.12554 12.6682 5.5597C12.0501 6.95926 11.285 8.24585 10.3636 9.40793L10.5665 9.52782L10.7112 9.61314C11.4436 8.64013 12.1993 7.68326 12.9714 6.74253C13.8112 5.7234 14.6719 4.72042 15.5512 3.73357C15.5396 3.68285 15.5279 3.63443 15.5209 3.5814C15.3926 2.73751 15.9804 1.94895 16.8342 1.82214C17.6879 1.69532 18.4856 2.27636 18.6139 3.12025C18.7422 3.96414 18.1544 4.7527 17.3007 4.87951C16.9858 4.92563 16.6779 4.87721 16.4096 4.7527C15.5979 5.66576 14.7955 6.60418 14.0024 7.56797C13.277 8.44875 12.5632 9.3549 11.8611 10.2841L12.1434 10.4501L12.3766 10.5885C12.9644 9.89904 13.5919 9.32262 14.294 8.85686C15.1011 8.31963 15.9991 7.92766 17.0348 7.67403C17.1934 7.1368 17.6576 6.71025 18.257 6.62263ZM4.48087 26.1658C4.51119 25.7739 4.54851 25.3842 4.59283 24.9968C5.18297 20.0004 7.14 15.3613 9.42359 12.1886C9.54488 12.0226 9.78047 11.9811 9.95308 12.101C10.121 12.2209 10.163 12.4538 10.0417 12.6244C7.82344 15.7071 5.92473 20.2194 5.34858 25.0821C5.3066 25.4418 5.27161 25.8015 5.24362 26.1635H4.48087V26.1658ZM18.3947 7.51724C18.7235 7.46882 19.0291 7.69248 19.0781 8.01758C19.1271 8.34269 18.9008 8.64474 18.5719 8.69316C18.243 8.74158 17.9375 8.51792 17.8885 8.19282C17.8395 7.86771 18.0658 7.56566 18.3947 7.51724ZM13.5219 -1.1822C13.8508 -1.23062 14.1564 -1.00697 14.2054 -0.681863C14.2543 -0.356758 14.0281 -0.0547094 13.6992 -0.00628948C13.3703 0.0421305 13.0647 -0.181524 13.0157 -0.506629C12.9668 -0.829428 13.193 -1.13378 13.5219 -1.1822ZM8.9804 1.58235C9.30929 1.53393 9.61486 1.75758 9.66384 2.08268C9.71282 2.40779 9.48656 2.70984 9.15767 2.75826C8.82878 2.80668 8.52321 2.58302 8.47423 2.25792C8.42525 1.93512 8.6515 1.63307 8.9804 1.58235ZM16.9788 2.76287C17.3077 2.71445 17.6132 2.9381 17.6622 3.26321C17.7112 3.58831 17.485 3.89036 17.1561 3.93878C16.8272 3.9872 16.5216 3.76355 16.4726 3.43844C16.4236 3.11334 16.6499 2.81129 16.9788 2.76287Z" fill="#201F94"/>
</svg>
