<svg width="201" height="100" viewBox="0 0 201 100" fill="none" xmlns="http://www.w3.org/2000/svg">
<path d="M19.3654 57.9647C21.5133 55.8169 21.5133 52.3345 19.3654 50.1866C17.2175 48.0388 13.7352 48.0388 11.5873 50.1866C9.43943 52.3345 9.43943 55.8169 11.5873 57.9647C13.7352 60.1126 17.2175 60.1126 19.3654 57.9647Z" fill="#1B1A63"/>
<path d="M85.7574 59.435C88.7135 58.7369 90.5441 55.7746 89.8461 52.8185C89.148 49.8623 86.1857 48.0317 83.2296 48.7298C80.2734 49.4278 78.4428 52.3901 79.1409 55.3463C79.8389 58.3024 82.8012 60.133 85.7574 59.435Z" fill="#1B1A63"/>
<path d="M80.3332 43.9998H75.6665C75.6665 29.8332 64.1665 18.3332 49.9998 18.3332C35.8332 18.3332 24.3332 29.8332 24.3332 43.9998H19.6665C19.6665 27.2498 33.2498 13.6665 49.9998 13.6665C66.7498 13.6665 80.3332 27.2498 80.3332 43.9998Z" fill="#201F94"/>
<path d="M57.75 84.5C55.75 84.5 54.4167 84.4167 54.25 84.4167L54.4167 82.5833C54.5833 82.5833 73.5 84 75.75 76.1667C78.25 67.5 77 58.3333 77 58.25L78.8333 58C78.9167 58.3333 80.1667 67.5833 77.5 76.6667C75.4167 83.5833 63.75 84.5 57.75 84.5Z" fill="#201F94"/>
<path d="M56.9163 86.333H51.833C50.1663 86.333 48.833 84.9997 48.833 83.333C48.833 81.6663 50.1663 80.333 51.833 80.333H56.9163C58.583 80.333 59.9163 81.6663 59.9163 83.333C59.9163 84.9997 58.583 86.333 56.9163 86.333Z" fill="#201F94"/>
<path d="M21 42.4165C16.75 42.4165 13.25 45.9165 13.25 50.1665V59.1665C13.25 63.4165 16.75 66.9165 21 66.9165C24.5833 66.9165 27.5 63.9998 27.5 60.4165V48.8332C27.4167 45.2498 24.5833 42.4165 21 42.4165Z" fill="#201F94"/>
<path d="M79 42.4165C75.4167 42.4165 72.5 45.3332 72.5 48.9165V60.4165C72.5 63.9998 75.4167 66.9165 79 66.9165C83.25 66.9165 86.75 63.4165 86.75 59.1665V50.0832C86.75 45.8332 83.25 42.4165 79 42.4165Z" fill="#201F94"/>
<path d="M34.9048 59V57.6676L38.4396 54.2024C38.7777 53.861 39.0594 53.5578 39.2848 53.2926C39.5102 53.0275 39.6792 52.7706 39.7919 52.522C39.9046 52.2734 39.9609 52.0083 39.9609 51.7266C39.9609 51.4051 39.888 51.13 39.7422 50.9013C39.5964 50.6693 39.3958 50.4903 39.1406 50.3643C38.8854 50.2384 38.5954 50.1754 38.2706 50.1754C37.9358 50.1754 37.6425 50.245 37.3906 50.3842C37.1387 50.5201 36.9432 50.714 36.804 50.9659C36.6681 51.2178 36.6001 51.5178 36.6001 51.8658H34.8452C34.8452 51.2195 34.9927 50.6577 35.2876 50.1804C35.5826 49.7031 35.9886 49.3336 36.5057 49.0717C37.026 48.8099 37.6226 48.679 38.2955 48.679C38.9782 48.679 39.5781 48.8066 40.0952 49.0618C40.6122 49.317 41.0133 49.6667 41.2983 50.1108C41.5866 50.5549 41.7308 51.062 41.7308 51.6321C41.7308 52.0133 41.6579 52.3878 41.5121 52.7557C41.3662 53.1236 41.1094 53.5312 40.7415 53.9787C40.3769 54.4261 39.8648 54.968 39.2053 55.6044L37.4503 57.3892V57.4588H41.8849V59H34.9048ZM43.4774 57.1108V55.6442L47.7978 48.8182H49.0208V50.9062H48.275L45.3666 55.5149V55.5945H51.3972V57.1108H43.4774ZM48.3347 59V56.6634L48.3546 56.0071V48.8182H50.0946V59H48.3347ZM57.4417 48.3409L54.1605 60.5312H52.5845L55.8658 48.3409H57.4417ZM59.2232 59L63.5534 50.429V50.3594H58.5271V48.8182H65.4625V50.3942L61.1372 59H59.2232Z" fill="#201F94"/>
<path d="M201 32.02C198.921 16.4832 186.851 12.8687 181.076 13.0036L88 13.0036C110.5 43.5 103.5 62.5 88 83H173.756H173.77C179.377 83 185.203 83 190.091 80.2543C194.177 77.9595 196.907 74.7327 198.627 71.6481C200.929 67.5186 201 62.6258 201 57.898V32.02Z" fill="#2928BC"/>
<path d="M110.483 54V50.0114L119.803 41.3821C120.596 40.6151 121.26 39.9247 121.797 39.3111C122.343 38.6974 122.756 38.0966 123.037 37.5085C123.319 36.9119 123.459 36.2685 123.459 35.5781C123.459 34.8111 123.285 34.1506 122.935 33.5966C122.586 33.0341 122.108 32.6037 121.503 32.3054C120.898 31.9986 120.212 31.8452 119.445 31.8452C118.644 31.8452 117.945 32.0071 117.349 32.331C116.752 32.6548 116.292 33.1193 115.968 33.7244C115.644 34.3295 115.482 35.0497 115.482 35.8849H110.228C110.228 34.1719 110.616 32.6847 111.391 31.4233C112.167 30.1619 113.253 29.1861 114.651 28.4957C116.049 27.8054 117.66 27.4602 119.483 27.4602C121.358 27.4602 122.991 27.7926 124.38 28.4574C125.778 29.1136 126.864 30.0256 127.64 31.1932C128.415 32.3608 128.803 33.6989 128.803 35.2074C128.803 36.196 128.607 37.1719 128.215 38.1349C127.831 39.098 127.145 40.1676 126.157 41.3438C125.168 42.5114 123.775 43.9134 121.976 45.5497L118.154 49.2955V49.4744H129.148V54H110.483ZM142.926 54.358C140.958 54.358 139.206 54.0384 137.672 53.3991C136.146 52.7514 134.949 51.8693 134.08 50.7528C133.21 49.6364 132.776 48.3707 132.776 46.956C132.776 45.8651 133.023 44.8636 133.517 43.9517C134.02 43.0312 134.702 42.2685 135.563 41.6634C136.423 41.0497 137.387 40.6577 138.452 40.4872V40.3082C137.054 40.027 135.921 39.3494 135.051 38.2756C134.182 37.1932 133.747 35.9361 133.747 34.5043C133.747 33.1491 134.144 31.9432 134.936 30.8864C135.729 29.821 136.816 28.9858 138.196 28.3807C139.585 27.767 141.162 27.4602 142.926 27.4602C144.691 27.4602 146.263 27.767 147.644 28.3807C149.033 28.9943 150.124 29.8338 150.916 30.8991C151.709 31.956 152.11 33.1577 152.118 34.5043C152.11 35.9446 151.666 37.2017 150.789 38.2756C149.911 39.3494 148.786 40.027 147.414 40.3082V40.4872C148.462 40.6577 149.412 41.0497 150.264 41.6634C151.125 42.2685 151.807 43.0312 152.31 43.9517C152.821 44.8636 153.081 45.8651 153.09 46.956C153.081 48.3707 152.642 49.6364 151.773 50.7528C150.904 51.8693 149.702 52.7514 148.168 53.3991C146.642 54.0384 144.895 54.358 142.926 54.358ZM142.926 50.2926C143.804 50.2926 144.571 50.1349 145.227 49.8196C145.884 49.4957 146.395 49.0526 146.762 48.4901C147.137 47.919 147.324 47.2628 147.324 46.5213C147.324 45.7628 147.132 45.0938 146.749 44.5142C146.365 43.9261 145.845 43.4659 145.189 43.1335C144.533 42.7926 143.779 42.6222 142.926 42.6222C142.083 42.6222 141.328 42.7926 140.664 43.1335C139.999 43.4659 139.475 43.9261 139.091 44.5142C138.716 45.0938 138.529 45.7628 138.529 46.5213C138.529 47.2628 138.712 47.919 139.078 48.4901C139.445 49.0526 139.96 49.4957 140.625 49.8196C141.29 50.1349 142.057 50.2926 142.926 50.2926ZM142.926 38.5952C143.659 38.5952 144.311 38.446 144.882 38.1477C145.453 37.8494 145.901 37.4361 146.225 36.9077C146.548 36.3793 146.71 35.7699 146.71 35.0795C146.71 34.3977 146.548 33.8011 146.225 33.2898C145.901 32.7699 145.458 32.3651 144.895 32.0753C144.333 31.777 143.676 31.6278 142.926 31.6278C142.185 31.6278 141.529 31.777 140.958 32.0753C140.387 32.3651 139.939 32.7699 139.615 33.2898C139.3 33.8011 139.142 34.3977 139.142 35.0795C139.142 35.7699 139.304 36.3793 139.628 36.9077C139.952 37.4361 140.399 37.8494 140.97 38.1477C141.541 38.446 142.193 38.5952 142.926 38.5952ZM166.727 54.358C164.758 54.358 163.007 54.0384 161.473 53.3991C159.947 52.7514 158.75 51.8693 157.881 50.7528C157.011 49.6364 156.577 48.3707 156.577 46.956C156.577 45.8651 156.824 44.8636 157.318 43.9517C157.821 43.0312 158.503 42.2685 159.363 41.6634C160.224 41.0497 161.187 40.6577 162.253 40.4872V40.3082C160.855 40.027 159.721 39.3494 158.852 38.2756C157.983 37.1932 157.548 35.9361 157.548 34.5043C157.548 33.1491 157.944 31.9432 158.737 30.8864C159.53 29.821 160.616 28.9858 161.997 28.3807C163.386 27.767 164.963 27.4602 166.727 27.4602C168.491 27.4602 170.064 27.767 171.444 28.3807C172.834 28.9943 173.925 29.8338 174.717 30.8991C175.51 31.956 175.91 33.1577 175.919 34.5043C175.91 35.9446 175.467 37.2017 174.589 38.2756C173.711 39.3494 172.586 40.027 171.214 40.3082V40.4872C172.263 40.6577 173.213 41.0497 174.065 41.6634C174.926 42.2685 175.608 43.0312 176.111 43.9517C176.622 44.8636 176.882 45.8651 176.89 46.956C176.882 48.3707 176.443 49.6364 175.574 50.7528C174.704 51.8693 173.503 52.7514 171.969 53.3991C170.443 54.0384 168.696 54.358 166.727 54.358ZM166.727 50.2926C167.605 50.2926 168.372 50.1349 169.028 49.8196C169.684 49.4957 170.196 49.0526 170.562 48.4901C170.937 47.919 171.125 47.2628 171.125 46.5213C171.125 45.7628 170.933 45.0938 170.55 44.5142C170.166 43.9261 169.646 43.4659 168.99 43.1335C168.334 42.7926 167.579 42.6222 166.727 42.6222C165.883 42.6222 165.129 42.7926 164.464 43.1335C163.8 43.4659 163.275 43.9261 162.892 44.5142C162.517 45.0938 162.329 45.7628 162.329 46.5213C162.329 47.2628 162.513 47.919 162.879 48.4901C163.246 49.0526 163.761 49.4957 164.426 49.8196C165.091 50.1349 165.858 50.2926 166.727 50.2926ZM166.727 38.5952C167.46 38.5952 168.112 38.446 168.683 38.1477C169.254 37.8494 169.702 37.4361 170.025 36.9077C170.349 36.3793 170.511 35.7699 170.511 35.0795C170.511 34.3977 170.349 33.8011 170.025 33.2898C169.702 32.7699 169.258 32.3651 168.696 32.0753C168.133 31.777 167.477 31.6278 166.727 31.6278C165.986 31.6278 165.329 31.777 164.758 32.0753C164.187 32.3651 163.74 32.7699 163.416 33.2898C163.101 33.8011 162.943 34.3977 162.943 35.0795C162.943 35.7699 163.105 36.3793 163.429 36.9077C163.753 37.4361 164.2 37.8494 164.771 38.1477C165.342 38.446 165.994 38.5952 166.727 38.5952Z" fill="#F7F7FF"/>
<path d="M118.258 73L115.815 69.7401H115.04V73H113.943V65.7273H115.04V68.799H115.399L118.148 65.7273H119.486L116.578 68.9837L119.597 73H118.258ZM125.869 69.3636C125.869 70.1402 125.727 70.8078 125.443 71.3665C125.159 71.9228 124.77 72.3513 124.275 72.652C123.782 72.9503 123.222 73.0994 122.595 73.0994C121.965 73.0994 121.403 72.9503 120.908 72.652C120.416 72.3513 120.028 71.9216 119.744 71.3629C119.459 70.8042 119.317 70.1378 119.317 69.3636C119.317 68.5871 119.459 67.9207 119.744 67.3643C120.028 66.8056 120.416 66.3771 120.908 66.0788C121.403 65.7782 121.965 65.6278 122.595 65.6278C123.222 65.6278 123.782 65.7782 124.275 66.0788C124.77 66.3771 125.159 66.8056 125.443 67.3643C125.727 67.9207 125.869 68.5871 125.869 69.3636ZM124.783 69.3636C124.783 68.7718 124.687 68.2734 124.495 67.8686C124.306 67.4614 124.045 67.1536 123.714 66.9453C123.385 66.7346 123.012 66.6293 122.595 66.6293C122.176 66.6293 121.802 66.7346 121.473 66.9453C121.144 67.1536 120.883 67.4614 120.692 67.8686C120.502 68.2734 120.408 68.7718 120.408 69.3636C120.408 69.9555 120.502 70.455 120.692 70.8622C120.883 71.267 121.144 71.5748 121.473 71.7855C121.802 71.9938 122.176 72.098 122.595 72.098C123.012 72.098 123.385 71.9938 123.714 71.7855C124.045 71.5748 124.306 71.267 124.495 70.8622C124.687 70.455 124.783 69.9555 124.783 69.3636ZM125.987 73V72.0483L126.2 72.0412C126.489 72.0341 126.716 71.9358 126.882 71.7464C127.05 71.5571 127.172 71.2517 127.248 70.8303C127.326 70.4089 127.378 69.8466 127.404 69.1435L127.528 65.7273H132.127V73H131.044V66.6577H128.561L128.448 69.4347C128.417 70.2135 128.339 70.8681 128.213 71.3984C128.088 71.9264 127.875 72.3253 127.574 72.5952C127.276 72.8651 126.851 73 126.299 73H125.987ZM132.474 73V72.0483L132.687 72.0412C132.976 72.0341 133.204 71.9358 133.369 71.7464C133.537 71.5571 133.659 71.2517 133.735 70.8303C133.813 70.4089 133.865 69.8466 133.891 69.1435L134.016 65.7273H138.614V73H137.531V66.6577H135.049L134.935 69.4347C134.905 70.2135 134.826 70.8681 134.701 71.3984C134.575 71.9264 134.362 72.3253 134.062 72.5952C133.763 72.8651 133.338 73 132.787 73H132.474ZM142.641 68.902V69.8253H139.416V68.902H142.641ZM149.894 72.0305L149.798 74.7188H148.704V73H148.193V72.0305H149.894ZM143.441 73V65.7273H144.492V72.0483H148.001V65.7273H149.056V73H143.441ZM150.397 73V65.7273H154.957V66.6719H151.495V68.8878H154.719V69.8288H151.495V72.0554H155V73H150.397ZM155.723 73V65.7273H156.82V68.8878H160.446V65.7273H161.547V73H160.446V69.8288H156.82V73H155.723ZM162.086 66.6719V65.7273H167.715V66.6719H165.445V73H164.352V66.6719H162.086ZM168.258 73V65.7273H170.851C171.417 65.7273 171.885 65.8303 172.257 66.0362C172.629 66.2422 172.907 66.5239 173.091 66.8814C173.276 67.2365 173.368 67.6366 173.368 68.0817C173.368 68.5291 173.275 68.9316 173.088 69.2891C172.903 69.6442 172.624 69.9259 172.25 70.1342C171.878 70.3402 171.411 70.4432 170.847 70.4432H169.064V69.5128H170.748C171.105 69.5128 171.395 69.4512 171.618 69.3281C171.84 69.2027 172.004 69.0322 172.108 68.8168C172.212 68.6013 172.264 68.3563 172.264 68.0817C172.264 67.8071 172.212 67.5632 172.108 67.3501C172.004 67.1371 171.839 66.9702 171.614 66.8494C171.392 66.7287 171.098 66.6683 170.734 66.6683H169.356V73H168.258Z" fill="#F7F7FF"/>
</svg>
