<svg width="100" height="100" viewBox="0 0 100 100" fill="none" xmlns="http://www.w3.org/2000/svg">
<path d="M19.3654 57.9645C21.5133 55.8166 21.5133 52.3343 19.3654 50.1864C17.2175 48.0385 13.7352 48.0385 11.5873 50.1864C9.43943 52.3343 9.43943 55.8166 11.5873 57.9645C13.7352 60.1124 17.2175 60.1124 19.3654 57.9645Z" fill="#1B1A63"/>
<path d="M85.7574 59.4348C88.7135 58.7368 90.5441 55.7745 89.8461 52.8183C89.148 49.8622 86.1857 48.0316 83.2296 48.7296C80.2734 49.4277 78.4428 52.39 79.1409 55.3461C79.8389 58.3023 82.8012 60.1329 85.7574 59.4348Z" fill="#1B1A63"/>
<path d="M80.3332 44H75.6665C75.6665 29.8334 64.1665 18.3334 49.9998 18.3334C35.8332 18.3334 24.3332 29.8334 24.3332 44H19.6665C19.6665 27.25 33.2498 13.6667 49.9998 13.6667C66.7498 13.6667 80.3332 27.25 80.3332 44Z" fill="#201F94"/>
<path d="M57.75 84.5C55.75 84.5 54.4167 84.4167 54.25 84.4167L54.4167 82.5833C54.5833 82.5833 73.5 84 75.75 76.1667C78.25 67.5 77 58.3333 77 58.25L78.8333 58C78.9167 58.3333 80.1667 67.5833 77.5 76.6667C75.4167 83.5833 63.75 84.5 57.75 84.5Z" fill="#201F94"/>
<path d="M56.9163 86.3334H51.833C50.1663 86.3334 48.833 85 48.833 83.3334C48.833 81.6667 50.1663 80.3334 51.833 80.3334H56.9163C58.583 80.3334 59.9163 81.6667 59.9163 83.3334C59.9163 85 58.583 86.3334 56.9163 86.3334Z" fill="#201F94"/>
<path d="M21 42.4167C16.75 42.4167 13.25 45.9167 13.25 50.1667V59.1667C13.25 63.4167 16.75 66.9167 21 66.9167C24.5833 66.9167 27.5 64 27.5 60.4167V48.8334C27.4167 45.25 24.5833 42.4167 21 42.4167Z" fill="#201F94"/>
<path d="M79 42.4167C75.4167 42.4167 72.5 45.3334 72.5 48.9167V60.4167C72.5 64 75.4167 66.9167 79 66.9167C83.25 66.9167 86.75 63.4167 86.75 59.1667V50.0834C86.75 45.8334 83.25 42.4167 79 42.4167Z" fill="#201F94"/>
<path d="M34.9048 59V57.6676L38.4396 54.2024C38.7777 53.861 39.0594 53.5578 39.2848 53.2926C39.5102 53.0275 39.6792 52.7706 39.7919 52.522C39.9046 52.2734 39.9609 52.0083 39.9609 51.7266C39.9609 51.4051 39.888 51.13 39.7422 50.9013C39.5964 50.6693 39.3958 50.4903 39.1406 50.3643C38.8854 50.2384 38.5954 50.1754 38.2706 50.1754C37.9358 50.1754 37.6425 50.245 37.3906 50.3842C37.1387 50.5201 36.9432 50.714 36.804 50.9659C36.6681 51.2178 36.6001 51.5178 36.6001 51.8658H34.8452C34.8452 51.2195 34.9927 50.6577 35.2876 50.1804C35.5826 49.7031 35.9886 49.3336 36.5057 49.0717C37.026 48.8099 37.6226 48.679 38.2955 48.679C38.9782 48.679 39.5781 48.8066 40.0952 49.0618C40.6122 49.317 41.0133 49.6667 41.2983 50.1108C41.5866 50.5549 41.7308 51.062 41.7308 51.6321C41.7308 52.0133 41.6579 52.3878 41.5121 52.7557C41.3662 53.1236 41.1094 53.5312 40.7415 53.9787C40.3769 54.4261 39.8648 54.968 39.2053 55.6044L37.4503 57.3892V57.4588H41.8849V59H34.9048ZM43.4774 57.1108V55.6442L47.7978 48.8182H49.0208V50.9062H48.275L45.3666 55.5149V55.5945H51.3972V57.1108H43.4774ZM48.3347 59V56.6634L48.3546 56.0071V48.8182H50.0946V59H48.3347ZM57.4417 48.3409L54.1605 60.5312H52.5845L55.8658 48.3409H57.4417ZM59.2232 59L63.5534 50.429V50.3594H58.5271V48.8182H65.4625V50.3942L61.1372 59H59.2232Z" fill="#201F94"/>
</svg>
