<svg width="201" height="100" viewBox="0 0 201 100" fill="none" xmlns="http://www.w3.org/2000/svg">
<path d="M19.3654 57.9647C21.5133 55.8169 21.5133 52.3345 19.3654 50.1866C17.2175 48.0388 13.7352 48.0388 11.5873 50.1866C9.43943 52.3345 9.43943 55.8169 11.5873 57.9647C13.7352 60.1126 17.2175 60.1126 19.3654 57.9647Z" fill="#1B1A63"/>
<path d="M85.7574 59.435C88.7135 58.7369 90.5441 55.7746 89.8461 52.8185C89.148 49.8623 86.1857 48.0317 83.2296 48.7298C80.2734 49.4278 78.4428 52.3901 79.1409 55.3463C79.8389 58.3024 82.8012 60.133 85.7574 59.435Z" fill="#1B1A63"/>
<path d="M80.3332 43.9998H75.6665C75.6665 29.8332 64.1665 18.3332 49.9998 18.3332C35.8332 18.3332 24.3332 29.8332 24.3332 43.9998H19.6665C19.6665 27.2498 33.2498 13.6665 49.9998 13.6665C66.7498 13.6665 80.3332 27.2498 80.3332 43.9998Z" fill="#201F94"/>
<path d="M57.75 84.5C55.75 84.5 54.4167 84.4167 54.25 84.4167L54.4167 82.5833C54.5833 82.5833 73.5 84 75.75 76.1667C78.25 67.5 77 58.3333 77 58.25L78.8333 58C78.9167 58.3333 80.1667 67.5833 77.5 76.6667C75.4167 83.5833 63.75 84.5 57.75 84.5Z" fill="#201F94"/>
<path d="M56.9163 86.333H51.833C50.1663 86.333 48.833 84.9997 48.833 83.333C48.833 81.6663 50.1663 80.333 51.833 80.333H56.9163C58.583 80.333 59.9163 81.6663 59.9163 83.333C59.9163 84.9997 58.583 86.333 56.9163 86.333Z" fill="#201F94"/>
<path d="M21 42.4165C16.75 42.4165 13.25 45.9165 13.25 50.1665V59.1665C13.25 63.4165 16.75 66.9165 21 66.9165C24.5833 66.9165 27.5 63.9998 27.5 60.4165V48.8332C27.4167 45.2498 24.5833 42.4165 21 42.4165Z" fill="#201F94"/>
<path d="M79 42.4165C75.4167 42.4165 72.5 45.3332 72.5 48.9165V60.4165C72.5 63.9998 75.4167 66.9165 79 66.9165C83.25 66.9165 86.75 63.4165 86.75 59.1665V50.0832C86.75 45.8332 83.25 42.4165 79 42.4165Z" fill="#201F94"/>
<path d="M34.9048 59V57.6676L38.4396 54.2024C38.7777 53.861 39.0594 53.5578 39.2848 53.2926C39.5102 53.0275 39.6792 52.7706 39.7919 52.522C39.9046 52.2734 39.9609 52.0083 39.9609 51.7266C39.9609 51.4051 39.888 51.13 39.7422 50.9013C39.5964 50.6693 39.3958 50.4903 39.1406 50.3643C38.8854 50.2384 38.5954 50.1754 38.2706 50.1754C37.9358 50.1754 37.6425 50.245 37.3906 50.3842C37.1387 50.5201 36.9432 50.714 36.804 50.9659C36.6681 51.2178 36.6001 51.5178 36.6001 51.8658H34.8452C34.8452 51.2195 34.9927 50.6577 35.2876 50.1804C35.5826 49.7031 35.9886 49.3336 36.5057 49.0717C37.026 48.8099 37.6226 48.679 38.2955 48.679C38.9782 48.679 39.5781 48.8066 40.0952 49.0618C40.6122 49.317 41.0133 49.6667 41.2983 50.1108C41.5866 50.5549 41.7308 51.062 41.7308 51.6321C41.7308 52.0133 41.6579 52.3878 41.5121 52.7557C41.3662 53.1236 41.1094 53.5312 40.7415 53.9787C40.3769 54.4261 39.8648 54.968 39.2053 55.6044L37.4503 57.3892V57.4588H41.8849V59H34.9048ZM43.4774 57.1108V55.6442L47.7978 48.8182H49.0208V50.9062H48.275L45.3666 55.5149V55.5945H51.3972V57.1108H43.4774ZM48.3347 59V56.6634L48.3546 56.0071V48.8182H50.0946V59H48.3347ZM57.4417 48.3409L54.1605 60.5312H52.5845L55.8658 48.3409H57.4417ZM59.2232 59L63.5534 50.429V50.3594H58.5271V48.8182H65.4625V50.3942L61.1372 59H59.2232Z" fill="#201F94"/>
<path d="M201 32.02C198.921 16.4832 186.851 12.8687 181.076 13.0036L88 13.0036C110.5 43.5 103.5 62.5 88 83H173.756H173.77C179.377 83 185.203 83 190.091 80.2543C194.177 77.9595 196.907 74.7327 198.627 71.6481C200.929 67.5186 201 62.6258 201 57.898V32.02Z" fill="#2928BC"/>
<path d="M110.483 54V50.0114L119.803 41.3821C120.596 40.6151 121.26 39.9247 121.797 39.3111C122.343 38.6974 122.756 38.0966 123.037 37.5085C123.319 36.9119 123.459 36.2685 123.459 35.5781C123.459 34.8111 123.285 34.1506 122.935 33.5966C122.586 33.0341 122.108 32.6037 121.503 32.3054C120.898 31.9986 120.212 31.8452 119.445 31.8452C118.644 31.8452 117.945 32.0071 117.349 32.331C116.752 32.6548 116.292 33.1193 115.968 33.7244C115.644 34.3295 115.482 35.0497 115.482 35.8849H110.228C110.228 34.1719 110.616 32.6847 111.391 31.4233C112.167 30.1619 113.253 29.1861 114.651 28.4957C116.049 27.8054 117.66 27.4602 119.483 27.4602C121.358 27.4602 122.991 27.7926 124.38 28.4574C125.778 29.1136 126.864 30.0256 127.64 31.1932C128.415 32.3608 128.803 33.6989 128.803 35.2074C128.803 36.196 128.607 37.1719 128.215 38.1349C127.831 39.098 127.145 40.1676 126.157 41.3438C125.168 42.5114 123.775 43.9134 121.976 45.5497L118.154 49.2955V49.4744H129.148V54H110.483ZM142.926 54.358C140.958 54.358 139.206 54.0384 137.672 53.3991C136.146 52.7514 134.949 51.8693 134.08 50.7528C133.21 49.6364 132.776 48.3707 132.776 46.956C132.776 45.8651 133.023 44.8636 133.517 43.9517C134.02 43.0312 134.702 42.2685 135.563 41.6634C136.423 41.0497 137.387 40.6577 138.452 40.4872V40.3082C137.054 40.027 135.921 39.3494 135.051 38.2756C134.182 37.1932 133.747 35.9361 133.747 34.5043C133.747 33.1491 134.144 31.9432 134.936 30.8864C135.729 29.821 136.816 28.9858 138.196 28.3807C139.585 27.767 141.162 27.4602 142.926 27.4602C144.691 27.4602 146.263 27.767 147.644 28.3807C149.033 28.9943 150.124 29.8338 150.916 30.8991C151.709 31.956 152.11 33.1577 152.118 34.5043C152.11 35.9446 151.666 37.2017 150.789 38.2756C149.911 39.3494 148.786 40.027 147.414 40.3082V40.4872C148.462 40.6577 149.412 41.0497 150.264 41.6634C151.125 42.2685 151.807 43.0312 152.31 43.9517C152.821 44.8636 153.081 45.8651 153.09 46.956C153.081 48.3707 152.642 49.6364 151.773 50.7528C150.904 51.8693 149.702 52.7514 148.168 53.3991C146.642 54.0384 144.895 54.358 142.926 54.358ZM142.926 50.2926C143.804 50.2926 144.571 50.1349 145.227 49.8196C145.884 49.4957 146.395 49.0526 146.762 48.4901C147.137 47.919 147.324 47.2628 147.324 46.5213C147.324 45.7628 147.132 45.0938 146.749 44.5142C146.365 43.9261 145.845 43.4659 145.189 43.1335C144.533 42.7926 143.779 42.6222 142.926 42.6222C142.083 42.6222 141.328 42.7926 140.664 43.1335C139.999 43.4659 139.475 43.9261 139.091 44.5142C138.716 45.0938 138.529 45.7628 138.529 46.5213C138.529 47.2628 138.712 47.919 139.078 48.4901C139.445 49.0526 139.96 49.4957 140.625 49.8196C141.29 50.1349 142.057 50.2926 142.926 50.2926ZM142.926 38.5952C143.659 38.5952 144.311 38.446 144.882 38.1477C145.453 37.8494 145.901 37.4361 146.225 36.9077C146.548 36.3793 146.71 35.7699 146.71 35.0795C146.71 34.3977 146.548 33.8011 146.225 33.2898C145.901 32.7699 145.458 32.3651 144.895 32.0753C144.333 31.777 143.676 31.6278 142.926 31.6278C142.185 31.6278 141.529 31.777 140.958 32.0753C140.387 32.3651 139.939 32.7699 139.615 33.2898C139.3 33.8011 139.142 34.3977 139.142 35.0795C139.142 35.7699 139.304 36.3793 139.628 36.9077C139.952 37.4361 140.399 37.8494 140.97 38.1477C141.541 38.446 142.193 38.5952 142.926 38.5952ZM166.727 54.358C164.758 54.358 163.007 54.0384 161.473 53.3991C159.947 52.7514 158.75 51.8693 157.881 50.7528C157.011 49.6364 156.577 48.3707 156.577 46.956C156.577 45.8651 156.824 44.8636 157.318 43.9517C157.821 43.0312 158.503 42.2685 159.363 41.6634C160.224 41.0497 161.187 40.6577 162.253 40.4872V40.3082C160.855 40.027 159.721 39.3494 158.852 38.2756C157.983 37.1932 157.548 35.9361 157.548 34.5043C157.548 33.1491 157.944 31.9432 158.737 30.8864C159.53 29.821 160.616 28.9858 161.997 28.3807C163.386 27.767 164.963 27.4602 166.727 27.4602C168.491 27.4602 170.064 27.767 171.444 28.3807C172.834 28.9943 173.925 29.8338 174.717 30.8991C175.51 31.956 175.91 33.1577 175.919 34.5043C175.91 35.9446 175.467 37.2017 174.589 38.2756C173.711 39.3494 172.586 40.027 171.214 40.3082V40.4872C172.263 40.6577 173.213 41.0497 174.065 41.6634C174.926 42.2685 175.608 43.0312 176.111 43.9517C176.622 44.8636 176.882 45.8651 176.89 46.956C176.882 48.3707 176.443 49.6364 175.574 50.7528C174.704 51.8693 173.503 52.7514 171.969 53.3991C170.443 54.0384 168.696 54.358 166.727 54.358ZM166.727 50.2926C167.605 50.2926 168.372 50.1349 169.028 49.8196C169.684 49.4957 170.196 49.0526 170.562 48.4901C170.937 47.919 171.125 47.2628 171.125 46.5213C171.125 45.7628 170.933 45.0938 170.55 44.5142C170.166 43.9261 169.646 43.4659 168.99 43.1335C168.334 42.7926 167.579 42.6222 166.727 42.6222C165.883 42.6222 165.129 42.7926 164.464 43.1335C163.8 43.4659 163.275 43.9261 162.892 44.5142C162.517 45.0938 162.329 45.7628 162.329 46.5213C162.329 47.2628 162.513 47.919 162.879 48.4901C163.246 49.0526 163.761 49.4957 164.426 49.8196C165.091 50.1349 165.858 50.2926 166.727 50.2926ZM166.727 38.5952C167.46 38.5952 168.112 38.446 168.683 38.1477C169.254 37.8494 169.702 37.4361 170.025 36.9077C170.349 36.3793 170.511 35.7699 170.511 35.0795C170.511 34.3977 170.349 33.8011 170.025 33.2898C169.702 32.7699 169.258 32.3651 168.696 32.0753C168.133 31.777 167.477 31.6278 166.727 31.6278C165.986 31.6278 165.329 31.777 164.758 32.0753C164.187 32.3651 163.74 32.7699 163.416 33.2898C163.101 33.8011 162.943 34.3977 162.943 35.0795C162.943 35.7699 163.105 36.3793 163.429 36.9077C163.753 37.4361 164.2 37.8494 164.771 38.1477C165.342 38.446 165.994 38.5952 166.727 38.5952Z" fill="#F7F7FF"/>
<path d="M119.801 68.0923H118.693C118.651 67.8556 118.572 67.6473 118.456 67.4673C118.34 67.2874 118.197 67.1347 118.029 67.0092C117.861 66.8838 117.673 66.7891 117.465 66.7251C117.259 66.6612 117.04 66.6293 116.808 66.6293C116.389 66.6293 116.014 66.7346 115.682 66.9453C115.353 67.156 115.093 67.465 114.901 67.8722C114.711 68.2794 114.617 68.7765 114.617 69.3636C114.617 69.9555 114.711 70.455 114.901 70.8622C115.093 71.2694 115.354 71.5772 115.686 71.7855C116.017 71.9938 116.39 72.098 116.804 72.098C117.034 72.098 117.252 72.0672 117.458 72.0057C117.666 71.9418 117.854 71.8482 118.022 71.7251C118.19 71.602 118.332 71.4517 118.448 71.2741C118.567 71.0942 118.648 70.8883 118.693 70.6562L119.801 70.6598C119.742 71.0173 119.627 71.3464 119.457 71.647C119.289 71.9453 119.072 72.2034 118.807 72.4212C118.544 72.6366 118.244 72.8035 117.905 72.9219C117.567 73.0402 117.197 73.0994 116.797 73.0994C116.167 73.0994 115.606 72.9503 115.114 72.652C114.621 72.3513 114.233 71.9216 113.949 71.3629C113.667 70.8042 113.527 70.1378 113.527 69.3636C113.527 68.5871 113.669 67.9207 113.953 67.3643C114.237 66.8056 114.625 66.3771 115.117 66.0788C115.61 65.7782 116.17 65.6278 116.797 65.6278C117.183 65.6278 117.543 65.6835 117.877 65.7947C118.213 65.9036 118.515 66.0646 118.782 66.2777C119.05 66.4884 119.271 66.7464 119.446 67.0518C119.621 67.3549 119.74 67.7017 119.801 68.0923ZM120.98 73H119.815L122.432 65.7273H123.7L126.317 73H125.153L123.096 67.0483H123.04L120.98 73ZM121.175 70.152H124.954V71.0753H121.175V70.152ZM126.668 73V65.7273H127.765V72.0554H131.06V73H126.668ZM131.612 73V65.7273H132.709V72.0554H136.005V73H131.612ZM144.544 68.0923H143.436C143.393 67.8556 143.314 67.6473 143.198 67.4673C143.082 67.2874 142.94 67.1347 142.772 67.0092C142.603 66.8838 142.415 66.7891 142.207 66.7251C142.001 66.6612 141.782 66.6293 141.55 66.6293C141.131 66.6293 140.756 66.7346 140.424 66.9453C140.095 67.156 139.835 67.465 139.643 67.8722C139.454 68.2794 139.359 68.7765 139.359 69.3636C139.359 69.9555 139.454 70.455 139.643 70.8622C139.835 71.2694 140.096 71.5772 140.428 71.7855C140.759 71.9938 141.132 72.098 141.546 72.098C141.776 72.098 141.994 72.0672 142.2 72.0057C142.408 71.9418 142.596 71.8482 142.764 71.7251C142.933 71.602 143.075 71.4517 143.191 71.2741C143.309 71.0942 143.391 70.8883 143.436 70.6562L144.544 70.6598C144.484 71.0173 144.37 71.3464 144.199 71.647C144.031 71.9453 143.814 72.2034 143.549 72.4212C143.286 72.6366 142.986 72.8035 142.647 72.9219C142.309 73.0402 141.939 73.0994 141.539 73.0994C140.91 73.0994 140.349 72.9503 139.856 72.652C139.364 72.3513 138.975 71.9216 138.691 71.3629C138.41 70.8042 138.269 70.1378 138.269 69.3636C138.269 68.5871 138.411 67.9207 138.695 67.3643C138.979 66.8056 139.367 66.3771 139.86 66.0788C140.352 65.7782 140.912 65.6278 141.539 65.6278C141.925 65.6278 142.285 65.6835 142.619 65.7947C142.955 65.9036 143.257 66.0646 143.524 66.2777C143.792 66.4884 144.013 66.7464 144.188 67.0518C144.364 67.3549 144.482 67.7017 144.544 68.0923ZM145.157 73V65.7273H149.716V66.6719H146.254V68.8878H149.478V69.8288H146.254V72.0554H149.759V73H145.157ZM156.352 65.7273V73H155.344L151.647 67.6662H151.579V73H150.482V65.7273H151.498L155.198 71.0682H155.265V65.7273H156.352ZM156.894 66.6719V65.7273H162.523V66.6719H160.253V73H159.16V66.6719H156.894ZM163.066 73V65.7273H167.626V66.6719H164.164V68.8878H167.388V69.8288H164.164V72.0554H167.669V73H163.066ZM168.392 73V65.7273H170.984C171.548 65.7273 172.015 65.8243 172.387 66.0185C172.761 66.2126 173.04 66.4813 173.225 66.8246C173.41 67.1655 173.502 67.5597 173.502 68.0071C173.502 68.4522 173.408 68.844 173.221 69.1825C173.037 69.5187 172.757 69.7803 172.383 69.9673C172.012 70.1544 171.544 70.2479 170.981 70.2479H169.017V69.3033H170.881C171.236 69.3033 171.525 69.2524 171.748 69.1506C171.973 69.0488 172.137 68.9008 172.241 68.7067C172.345 68.5125 172.397 68.2794 172.397 68.0071C172.397 67.7325 172.344 67.4946 172.238 67.2933C172.133 67.0921 171.969 66.9382 171.744 66.8317C171.522 66.7228 171.229 66.6683 170.867 66.6683H169.489V73H168.392ZM171.982 69.7188L173.779 73H172.529L170.767 69.7188H171.982Z" fill="#F7F7FF"/>
</svg>
