<svg width="201" height="100" viewBox="0 0 201 100" fill="none" xmlns="http://www.w3.org/2000/svg">
<path d="M19.3654 57.9647C21.5133 55.8169 21.5133 52.3345 19.3654 50.1866C17.2175 48.0388 13.7352 48.0388 11.5873 50.1866C9.43943 52.3345 9.43943 55.8169 11.5873 57.9647C13.7352 60.1126 17.2175 60.1126 19.3654 57.9647Z" fill="#1B1A63"/>
<path d="M85.7574 59.435C88.7135 58.7369 90.5441 55.7746 89.8461 52.8185C89.148 49.8623 86.1857 48.0317 83.2296 48.7298C80.2734 49.4278 78.4428 52.3901 79.1409 55.3463C79.8389 58.3024 82.8012 60.133 85.7574 59.435Z" fill="#1B1A63"/>
<path d="M80.3332 43.9998H75.6665C75.6665 29.8332 64.1665 18.3332 49.9998 18.3332C35.8332 18.3332 24.3332 29.8332 24.3332 43.9998H19.6665C19.6665 27.2498 33.2498 13.6665 49.9998 13.6665C66.7498 13.6665 80.3332 27.2498 80.3332 43.9998Z" fill="#201F94"/>
<path d="M57.75 84.5C55.75 84.5 54.4167 84.4167 54.25 84.4167L54.4167 82.5833C54.5833 82.5833 73.5 84 75.75 76.1667C78.25 67.5 77 58.3333 77 58.25L78.8333 58C78.9167 58.3333 80.1667 67.5833 77.5 76.6667C75.4167 83.5833 63.75 84.5 57.75 84.5Z" fill="#201F94"/>
<path d="M56.9163 86.333H51.833C50.1663 86.333 48.833 84.9997 48.833 83.333C48.833 81.6663 50.1663 80.333 51.833 80.333H56.9163C58.583 80.333 59.9163 81.6663 59.9163 83.333C59.9163 84.9997 58.583 86.333 56.9163 86.333Z" fill="#201F94"/>
<path d="M21 42.4165C16.75 42.4165 13.25 45.9165 13.25 50.1665V59.1665C13.25 63.4165 16.75 66.9165 21 66.9165C24.5833 66.9165 27.5 63.9998 27.5 60.4165V48.8332C27.4167 45.2498 24.5833 42.4165 21 42.4165Z" fill="#201F94"/>
<path d="M79 42.4165C75.4167 42.4165 72.5 45.3332 72.5 48.9165V60.4165C72.5 63.9998 75.4167 66.9165 79 66.9165C83.25 66.9165 86.75 63.4165 86.75 59.1665V50.0832C86.75 45.8332 83.25 42.4165 79 42.4165Z" fill="#201F94"/>
<path d="M34.9048 59V57.6676L38.4396 54.2024C38.7777 53.861 39.0594 53.5578 39.2848 53.2926C39.5102 53.0275 39.6792 52.7706 39.7919 52.522C39.9046 52.2734 39.9609 52.0083 39.9609 51.7266C39.9609 51.4051 39.888 51.13 39.7422 50.9013C39.5964 50.6693 39.3958 50.4903 39.1406 50.3643C38.8854 50.2384 38.5954 50.1754 38.2706 50.1754C37.9358 50.1754 37.6425 50.245 37.3906 50.3842C37.1387 50.5201 36.9432 50.714 36.804 50.9659C36.6681 51.2178 36.6001 51.5178 36.6001 51.8658H34.8452C34.8452 51.2195 34.9927 50.6577 35.2876 50.1804C35.5826 49.7031 35.9886 49.3336 36.5057 49.0717C37.026 48.8099 37.6226 48.679 38.2955 48.679C38.9782 48.679 39.5781 48.8066 40.0952 49.0618C40.6122 49.317 41.0133 49.6667 41.2983 50.1108C41.5866 50.5549 41.7308 51.062 41.7308 51.6321C41.7308 52.0133 41.6579 52.3878 41.5121 52.7557C41.3662 53.1236 41.1094 53.5312 40.7415 53.9787C40.3769 54.4261 39.8648 54.968 39.2053 55.6044L37.4503 57.3892V57.4588H41.8849V59H34.9048ZM43.4774 57.1108V55.6442L47.7978 48.8182H49.0208V50.9062H48.275L45.3666 55.5149V55.5945H51.3972V57.1108H43.4774ZM48.3347 59V56.6634L48.3546 56.0071V48.8182H50.0946V59H48.3347ZM57.4417 48.3409L54.1605 60.5312H52.5845L55.8658 48.3409H57.4417ZM59.2232 59L63.5534 50.429V50.3594H58.5271V48.8182H65.4625V50.3942L61.1372 59H59.2232Z" fill="#201F94"/>
<path d="M201 32.02C198.921 16.4832 186.851 12.8687 181.076 13.0036L88 13.0036C110.5 43.5 103.5 62.5 88 83H173.756H173.77C179.377 83 185.203 83 190.091 80.2543C194.177 77.9595 196.907 74.7327 198.627 71.6481C200.929 67.5186 201 62.6258 201 57.898V32.02Z" fill="#2928BC"/>
<path d="M110.483 54V50.0114L119.803 41.3821C120.596 40.6151 121.26 39.9247 121.797 39.3111C122.343 38.6974 122.756 38.0966 123.037 37.5085C123.319 36.9119 123.459 36.2685 123.459 35.5781C123.459 34.8111 123.285 34.1506 122.935 33.5966C122.586 33.0341 122.108 32.6037 121.503 32.3054C120.898 31.9986 120.212 31.8452 119.445 31.8452C118.644 31.8452 117.945 32.0071 117.349 32.331C116.752 32.6548 116.292 33.1193 115.968 33.7244C115.644 34.3295 115.482 35.0497 115.482 35.8849H110.228C110.228 34.1719 110.616 32.6847 111.391 31.4233C112.167 30.1619 113.253 29.1861 114.651 28.4957C116.049 27.8054 117.66 27.4602 119.483 27.4602C121.358 27.4602 122.991 27.7926 124.38 28.4574C125.778 29.1136 126.864 30.0256 127.64 31.1932C128.415 32.3608 128.803 33.6989 128.803 35.2074C128.803 36.196 128.607 37.1719 128.215 38.1349C127.831 39.098 127.145 40.1676 126.157 41.3438C125.168 42.5114 123.775 43.9134 121.976 45.5497L118.154 49.2955V49.4744H129.148V54H110.483ZM142.926 54.358C140.958 54.358 139.206 54.0384 137.672 53.3991C136.146 52.7514 134.949 51.8693 134.08 50.7528C133.21 49.6364 132.776 48.3707 132.776 46.956C132.776 45.8651 133.023 44.8636 133.517 43.9517C134.02 43.0312 134.702 42.2685 135.563 41.6634C136.423 41.0497 137.387 40.6577 138.452 40.4872V40.3082C137.054 40.027 135.921 39.3494 135.051 38.2756C134.182 37.1932 133.747 35.9361 133.747 34.5043C133.747 33.1491 134.144 31.9432 134.936 30.8864C135.729 29.821 136.816 28.9858 138.196 28.3807C139.585 27.767 141.162 27.4602 142.926 27.4602C144.691 27.4602 146.263 27.767 147.644 28.3807C149.033 28.9943 150.124 29.8338 150.916 30.8991C151.709 31.956 152.11 33.1577 152.118 34.5043C152.11 35.9446 151.666 37.2017 150.789 38.2756C149.911 39.3494 148.786 40.027 147.414 40.3082V40.4872C148.462 40.6577 149.412 41.0497 150.264 41.6634C151.125 42.2685 151.807 43.0312 152.31 43.9517C152.821 44.8636 153.081 45.8651 153.09 46.956C153.081 48.3707 152.642 49.6364 151.773 50.7528C150.904 51.8693 149.702 52.7514 148.168 53.3991C146.642 54.0384 144.895 54.358 142.926 54.358ZM142.926 50.2926C143.804 50.2926 144.571 50.1349 145.227 49.8196C145.884 49.4957 146.395 49.0526 146.762 48.4901C147.137 47.919 147.324 47.2628 147.324 46.5213C147.324 45.7628 147.132 45.0938 146.749 44.5142C146.365 43.9261 145.845 43.4659 145.189 43.1335C144.533 42.7926 143.779 42.6222 142.926 42.6222C142.083 42.6222 141.328 42.7926 140.664 43.1335C139.999 43.4659 139.475 43.9261 139.091 44.5142C138.716 45.0938 138.529 45.7628 138.529 46.5213C138.529 47.2628 138.712 47.919 139.078 48.4901C139.445 49.0526 139.96 49.4957 140.625 49.8196C141.29 50.1349 142.057 50.2926 142.926 50.2926ZM142.926 38.5952C143.659 38.5952 144.311 38.446 144.882 38.1477C145.453 37.8494 145.901 37.4361 146.225 36.9077C146.548 36.3793 146.71 35.7699 146.71 35.0795C146.71 34.3977 146.548 33.8011 146.225 33.2898C145.901 32.7699 145.458 32.3651 144.895 32.0753C144.333 31.777 143.676 31.6278 142.926 31.6278C142.185 31.6278 141.529 31.777 140.958 32.0753C140.387 32.3651 139.939 32.7699 139.615 33.2898C139.3 33.8011 139.142 34.3977 139.142 35.0795C139.142 35.7699 139.304 36.3793 139.628 36.9077C139.952 37.4361 140.399 37.8494 140.97 38.1477C141.541 38.446 142.193 38.5952 142.926 38.5952ZM166.727 54.358C164.758 54.358 163.007 54.0384 161.473 53.3991C159.947 52.7514 158.75 51.8693 157.881 50.7528C157.011 49.6364 156.577 48.3707 156.577 46.956C156.577 45.8651 156.824 44.8636 157.318 43.9517C157.821 43.0312 158.503 42.2685 159.363 41.6634C160.224 41.0497 161.187 40.6577 162.253 40.4872V40.3082C160.855 40.027 159.721 39.3494 158.852 38.2756C157.983 37.1932 157.548 35.9361 157.548 34.5043C157.548 33.1491 157.944 31.9432 158.737 30.8864C159.53 29.821 160.616 28.9858 161.997 28.3807C163.386 27.767 164.963 27.4602 166.727 27.4602C168.491 27.4602 170.064 27.767 171.444 28.3807C172.834 28.9943 173.925 29.8338 174.717 30.8991C175.51 31.956 175.91 33.1577 175.919 34.5043C175.91 35.9446 175.467 37.2017 174.589 38.2756C173.711 39.3494 172.586 40.027 171.214 40.3082V40.4872C172.263 40.6577 173.213 41.0497 174.065 41.6634C174.926 42.2685 175.608 43.0312 176.111 43.9517C176.622 44.8636 176.882 45.8651 176.89 46.956C176.882 48.3707 176.443 49.6364 175.574 50.7528C174.704 51.8693 173.503 52.7514 171.969 53.3991C170.443 54.0384 168.696 54.358 166.727 54.358ZM166.727 50.2926C167.605 50.2926 168.372 50.1349 169.028 49.8196C169.684 49.4957 170.196 49.0526 170.562 48.4901C170.937 47.919 171.125 47.2628 171.125 46.5213C171.125 45.7628 170.933 45.0938 170.55 44.5142C170.166 43.9261 169.646 43.4659 168.99 43.1335C168.334 42.7926 167.579 42.6222 166.727 42.6222C165.883 42.6222 165.129 42.7926 164.464 43.1335C163.8 43.4659 163.275 43.9261 162.892 44.5142C162.517 45.0938 162.329 45.7628 162.329 46.5213C162.329 47.2628 162.513 47.919 162.879 48.4901C163.246 49.0526 163.761 49.4957 164.426 49.8196C165.091 50.1349 165.858 50.2926 166.727 50.2926ZM166.727 38.5952C167.46 38.5952 168.112 38.446 168.683 38.1477C169.254 37.8494 169.702 37.4361 170.025 36.9077C170.349 36.3793 170.511 35.7699 170.511 35.0795C170.511 34.3977 170.349 33.8011 170.025 33.2898C169.702 32.7699 169.258 32.3651 168.696 32.0753C168.133 31.777 167.477 31.6278 166.727 31.6278C165.986 31.6278 165.329 31.777 164.758 32.0753C164.187 32.3651 163.74 32.7699 163.416 33.2898C163.101 33.8011 162.943 34.3977 162.943 35.0795C162.943 35.7699 163.105 36.3793 163.429 36.9077C163.753 37.4361 164.2 37.8494 164.771 38.1477C165.342 38.446 165.994 38.5952 166.727 38.5952Z" fill="#F7F7FF"/>
<path d="M114.994 68.0923H113.886C113.843 67.8556 113.764 67.6473 113.648 67.4673C113.532 67.2874 113.39 67.1347 113.222 67.0092C113.053 66.8838 112.865 66.7891 112.657 66.7251C112.451 66.6612 112.232 66.6293 112 66.6293C111.581 66.6293 111.206 66.7346 110.874 66.9453C110.545 67.156 110.285 67.465 110.093 67.8722C109.904 68.2794 109.809 68.7765 109.809 69.3636C109.809 69.9555 109.904 70.455 110.093 70.8622C110.285 71.2694 110.546 71.5772 110.878 71.7855C111.209 71.9938 111.582 72.098 111.996 72.098C112.226 72.098 112.444 72.0672 112.65 72.0057C112.858 71.9418 113.046 71.8482 113.214 71.7251C113.383 71.602 113.525 71.4517 113.641 71.2741C113.759 71.0942 113.841 70.8883 113.886 70.6562L114.994 70.6598C114.934 71.0173 114.82 71.3464 114.649 71.647C114.481 71.9453 114.264 72.2034 113.999 72.4212C113.736 72.6366 113.436 72.8035 113.097 72.9219C112.759 73.0402 112.389 73.0994 111.989 73.0994C111.36 73.0994 110.799 72.9503 110.306 72.652C109.814 72.3513 109.425 71.9216 109.141 71.3629C108.86 70.8042 108.719 70.1378 108.719 69.3636C108.719 68.5871 108.861 67.9207 109.145 67.3643C109.429 66.8056 109.817 66.3771 110.31 66.0788C110.802 65.7782 111.362 65.6278 111.989 65.6278C112.375 65.6278 112.735 65.6835 113.069 65.7947C113.405 65.9036 113.707 66.0646 113.974 66.2777C114.242 66.4884 114.463 66.7464 114.638 67.0518C114.814 67.3549 114.932 67.7017 114.994 68.0923ZM111.616 73.0107H112.312L112.256 73.3018C112.462 73.335 112.642 73.4179 112.795 73.5504C112.949 73.683 113.026 73.883 113.026 74.1506C113.029 74.4702 112.89 74.7294 112.611 74.9283C112.334 75.1271 111.933 75.2266 111.407 75.2266L111.386 74.6335C111.632 74.6335 111.831 74.598 111.982 74.527C112.136 74.456 112.214 74.3411 112.217 74.1825C112.219 74.0239 112.16 73.9126 112.039 73.8487C111.921 73.7848 111.731 73.7398 111.471 73.7138L111.616 73.0107ZM116.172 73H115.007L117.625 65.7273H118.892L121.51 73H120.345L118.289 67.0483H118.232L116.172 73ZM116.367 70.152H120.146V71.0753H116.367V70.152ZM126.44 68.0249C126.371 67.8094 126.279 67.6165 126.163 67.446C126.049 67.2732 125.913 67.1264 125.754 67.0057C125.596 66.8826 125.415 66.7891 125.211 66.7251C125.01 66.6612 124.789 66.6293 124.547 66.6293C124.138 66.6293 123.768 66.7346 123.439 66.9453C123.11 67.156 122.85 67.465 122.658 67.8722C122.468 68.277 122.374 68.773 122.374 69.3601C122.374 69.9496 122.47 70.4479 122.661 70.8551C122.853 71.2623 123.116 71.5713 123.45 71.782C123.784 71.9927 124.164 72.098 124.59 72.098C124.985 72.098 125.33 72.0175 125.623 71.8565C125.919 71.6955 126.147 71.4683 126.308 71.1747C126.472 70.8788 126.553 70.5308 126.553 70.1307L126.838 70.1839H124.757V69.2784H127.615V70.1058C127.615 70.7166 127.485 71.2469 127.225 71.6967C126.967 72.1442 126.609 72.4898 126.152 72.7337C125.698 72.9775 125.177 73.0994 124.59 73.0994C123.932 73.0994 123.354 72.9479 122.857 72.6449C122.362 72.3419 121.976 71.9122 121.699 71.3558C121.422 70.7971 121.284 70.1342 121.284 69.3672C121.284 68.7872 121.364 68.2663 121.525 67.8047C121.686 67.343 121.912 66.9512 122.203 66.6293C122.497 66.3049 122.841 66.0575 123.237 65.8871C123.634 65.7143 124.069 65.6278 124.54 65.6278C124.933 65.6278 125.299 65.6858 125.637 65.8018C125.978 65.9179 126.281 66.0824 126.546 66.2955C126.814 66.5085 127.035 66.7618 127.21 67.0554C127.386 67.3466 127.504 67.6697 127.566 68.0249H126.44ZM125.225 63.8807H126.099C126.099 64.2808 125.957 64.6063 125.673 64.8572C125.391 65.1058 125.01 65.2301 124.529 65.2301C124.051 65.2301 123.671 65.1058 123.389 64.8572C123.108 64.6063 122.967 64.2808 122.967 63.8807H123.837C123.837 64.0582 123.889 64.2157 123.993 64.353C124.097 64.4879 124.276 64.5554 124.529 64.5554C124.778 64.5554 124.955 64.4879 125.062 64.353C125.171 64.218 125.225 64.0606 125.225 63.8807ZM128.308 73V65.7273H130.901C131.464 65.7273 131.932 65.8243 132.303 66.0185C132.677 66.2126 132.957 66.4813 133.141 66.8246C133.326 67.1655 133.418 67.5597 133.418 68.0071C133.418 68.4522 133.325 68.844 133.138 69.1825C132.953 69.5187 132.674 69.7803 132.3 69.9673C131.928 70.1544 131.46 70.2479 130.897 70.2479H128.933V69.3033H130.798C131.153 69.3033 131.441 69.2524 131.664 69.1506C131.889 69.0488 132.053 68.9008 132.158 68.7067C132.262 68.5125 132.314 68.2794 132.314 68.0071C132.314 67.7325 132.261 67.4946 132.154 67.2933C132.05 67.0921 131.885 66.9382 131.66 66.8317C131.438 66.7228 131.146 66.6683 130.783 66.6683H129.405V73H128.308ZM131.898 69.7188L133.695 73H132.445L130.684 69.7188H131.898ZM135.151 65.7273V73H134.053V65.7273H135.151ZM137.995 65.7273H139.327L141.642 71.3807H141.728L144.043 65.7273H145.375V73H144.331V67.7372H144.263L142.118 72.9893H141.252L139.107 67.7337H139.039V73H137.995V65.7273ZM149.054 73.0994C148.469 73.0994 147.958 72.9692 147.52 72.7088C147.084 72.4484 146.745 72.0732 146.501 71.5831C146.259 71.0907 146.139 70.4976 146.139 69.804V69.1222H151.376V70.0526H147.325V70.2053C147.327 70.6125 147.397 70.9569 147.534 71.2386C147.674 71.5204 147.871 71.7346 148.127 71.8814C148.385 72.0258 148.689 72.098 149.04 72.098C149.464 72.098 149.819 71.9986 150.105 71.7997C150.392 71.5985 150.608 71.3191 150.755 70.9616C150.902 70.6018 150.975 70.1887 150.975 69.7223V69.0334C150.975 68.6617 150.93 68.3279 150.84 68.032C150.753 67.736 150.619 67.4851 150.439 67.2791C150.259 67.0732 150.029 66.9157 149.75 66.8068C149.471 66.6979 149.14 66.6435 148.759 66.6435C148.572 66.6435 148.378 66.6565 148.177 66.6825C147.978 66.7062 147.78 66.7441 147.584 66.7962C147.387 66.8459 147.198 66.9086 147.016 66.9844L146.771 66.0646C146.868 66.0054 146.992 65.9498 147.143 65.8977C147.297 65.8456 147.468 65.7995 147.655 65.7592C147.842 65.7166 148.037 65.6847 148.241 65.6634C148.447 65.6397 148.65 65.6278 148.852 65.6278C149.54 65.6278 150.132 65.7675 150.627 66.0469C151.124 66.3262 151.505 66.7204 151.771 67.2294C152.038 67.7384 152.172 68.3397 152.172 69.0334V69.7223C152.172 70.3686 152.044 70.9474 151.788 71.4588C151.533 71.9678 151.172 72.3691 150.705 72.6626C150.239 72.9538 149.688 73.0994 149.054 73.0994ZM152.923 73V65.7273H155.516C156.079 65.7273 156.547 65.8243 156.918 66.0185C157.293 66.2126 157.572 66.4813 157.757 66.8246C157.941 67.1655 158.034 67.5597 158.034 68.0071C158.034 68.4522 157.94 68.844 157.753 69.1825C157.568 69.5187 157.289 69.7803 156.915 69.9673C156.543 70.1544 156.076 70.2479 155.512 70.2479H153.548V69.3033H155.413C155.768 69.3033 156.057 69.2524 156.279 69.1506C156.504 69.0488 156.669 68.9008 156.773 68.7067C156.877 68.5125 156.929 68.2794 156.929 68.0071C156.929 67.7325 156.876 67.4946 156.769 67.2933C156.665 67.0921 156.501 66.9382 156.276 66.8317C156.053 66.7228 155.761 66.6683 155.399 66.6683H154.021V73H152.923ZM156.514 69.7188L158.31 73H157.06L155.299 69.7188H156.514ZM158.669 73V65.7273H159.766V69.2003H159.855L162.905 65.7273H164.287L161.353 69.0014L164.297 73H162.976L160.625 69.7507L159.766 70.7379V73H158.669ZM167.393 73.0994C166.809 73.0994 166.297 72.9692 165.859 72.7088C165.424 72.4484 165.084 72.0732 164.84 71.5831C164.599 71.0907 164.478 70.4976 164.478 69.804V69.1222H169.716V70.0526H165.664V70.2053C165.666 70.6125 165.736 70.9569 165.874 71.2386C166.013 71.5204 166.211 71.7346 166.467 71.8814C166.725 72.0258 167.029 72.098 167.379 72.098C167.803 72.098 168.158 71.9986 168.445 71.7997C168.731 71.5985 168.948 71.3191 169.094 70.9616C169.241 70.6018 169.315 70.1887 169.315 69.7223V69.0334C169.315 68.6617 169.27 68.3279 169.18 68.032C169.092 67.736 168.958 67.4851 168.778 67.2791C168.598 67.0732 168.369 66.9157 168.089 66.8068C167.81 66.6979 167.48 66.6435 167.099 66.6435C166.912 66.6435 166.718 66.6565 166.516 66.6825C166.317 66.7062 166.12 66.7441 165.923 66.7962C165.727 66.8459 165.537 66.9086 165.355 66.9844L165.11 66.0646C165.207 66.0054 165.331 65.9498 165.483 65.8977C165.637 65.8456 165.807 65.7995 165.994 65.7592C166.181 65.7166 166.377 65.6847 166.58 65.6634C166.786 65.6397 166.99 65.6278 167.191 65.6278C167.88 65.6278 168.472 65.7675 168.967 66.0469C169.464 66.3262 169.845 66.7204 170.11 67.2294C170.378 67.7384 170.511 68.3397 170.511 69.0334V69.7223C170.511 70.3686 170.384 70.9474 170.128 71.4588C169.872 71.9678 169.511 72.3691 169.045 72.6626C168.578 72.9538 168.028 73.0994 167.393 73.0994ZM171.075 73V72.2685L174.899 66.6719H171.043V65.7273H176.242V66.4588L172.417 72.0554H176.274V73H171.075ZM178.047 65.7273V73H176.95V65.7273H178.047ZM177.5 64.8857C177.315 64.8857 177.157 64.8241 177.024 64.701C176.894 64.5755 176.829 64.4264 176.829 64.2536C176.829 64.0784 176.894 63.9292 177.024 63.8061C177.157 63.6806 177.315 63.6179 177.5 63.6179C177.685 63.6179 177.842 63.6806 177.972 63.8061C178.105 63.9292 178.171 64.0784 178.171 64.2536C178.171 64.4264 178.105 64.5755 177.972 64.701C177.842 64.8241 177.685 64.8857 177.5 64.8857Z" fill="#F7F7FF"/>
</svg>
