<svg width="60" height="60" viewBox="0 0 60 60" fill="none" xmlns="http://www.w3.org/2000/svg">
<rect width="60" height="60" rx="8" fill="#0098C3" fill-opacity="0.05"/>
<g clip-path="url(#clip0_10_2751)">
<path d="M29.6151 39.4261C27.6068 40.5697 25.4964 40.8381 23.284 40.2312C21.0716 39.6243 19.3935 38.3167 18.2499 36.3084C17.1062 34.3001 16.8378 32.1897 17.4448 29.9773C18.0517 27.7648 19.3593 26.0868 21.3676 24.9431L32.085 18.84C33.5333 18.0152 35.053 17.8211 36.6441 18.2576C38.2352 18.694 39.4432 19.6364 40.2679 21.0847C41.0927 22.533 41.2868 24.0527 40.8504 25.6439C40.4139 27.235 39.4715 28.4429 38.0232 29.2677L27.8851 35.041C26.9968 35.5468 26.0678 35.6667 25.0979 35.4007C24.1281 35.1346 23.3903 34.5575 22.8844 33.6692C22.3786 32.7809 22.2587 31.8518 22.5247 30.882C22.7908 29.9122 23.3679 29.1743 24.2562 28.6685L34.9736 22.5653L36.2932 24.8826L25.5758 30.9857C25.3248 31.1287 25.1639 31.329 25.0933 31.5866C25.0226 31.8442 25.0587 32.0985 25.2017 32.3496C25.3446 32.6006 25.5449 32.7615 25.8025 32.8321C26.0602 32.9028 26.3145 32.8666 26.5655 32.7237L36.7036 26.9504C37.5036 26.4692 38.027 25.794 38.2736 24.9248C38.5202 24.0555 38.4125 23.2154 37.9507 22.4043C37.4888 21.5933 36.8184 21.0672 35.9395 20.8261C35.0606 20.585 34.2156 20.6954 33.4046 21.1572L22.6872 27.2604C21.3051 28.0219 20.4111 29.1575 20.0051 30.6674C19.599 32.1773 19.7864 33.6177 20.5671 34.9888C21.3369 36.3405 22.4692 37.2173 23.9639 37.6192C25.4586 38.0211 26.9025 37.851 28.2955 37.1088L39.5922 30.6757L40.9118 32.993L29.6151 39.4261Z" fill="#1F7594"/>
</g>
<defs>
<clipPath id="clip0_10_2751">
<rect width="32" height="32" fill="white" transform="translate(35.9863 8.17874) rotate(60.34)"/>
</clipPath>
</defs>
</svg>
