<svg id="Layer_1" data-name="Layer 1" xmlns="http://www.w3.org/2000/svg" viewBox="0 0 372.39 100.33"><defs><style>.cls-1{fill:#22449c;stroke:#22479a;stroke-miterlimit:10;}</style></defs><path class="cls-1" d="M5.77,5.65v8.18h9.46V5.65h2.55V25.2H15.23V16H5.77V25.2H3.25V5.65Z"/><path class="cls-1" d="M25.32,19.05l-2,6.15H20.68L27.32,5.65h3L37,25.2h-2.7l-2.09-6.15Zm6.41-2-1.92-5.63c-.43-1.28-.72-2.44-1-3.57h-.06c-.29,1.16-.61,2.35-1,3.54l-1.91,5.66Z"/><path class="cls-1" d="M50.61,25.2l-2.5-4.32c-1-1.66-1.65-2.73-2.26-3.86h-.06c-.55,1.13-1.1,2.18-2.12,3.89L41.32,25.2h-2.9l6-9.89L38.66,5.65h2.93l2.58,4.58c.72,1.28,1.27,2.26,1.8,3.31h.08c.55-1.16,1.05-2.06,1.77-3.31l2.67-4.58h2.9l-6,9.51,6.1,10Z"/><path class="cls-1" d="M58.32,5.65v6.21c0,2.66,1.39,4.17,4.15,4.17a7.64,7.64,0,0,0,3.85-1.1V5.65h2.56V25.2H66.32V16.9h0a9.4,9.4,0,0,1-4.7,1.22c-2.58,0-5.77-1.1-5.77-5.89V5.65Z"/><path class="cls-1" d="M75.78,5.65V13a19.24,19.24,0,0,1,2.32-.15c4,0,7.54,1.77,7.54,6.12a5.87,5.87,0,0,1-1.51,4.15c-1.6,1.68-4.32,2.29-7,2.29a29,29,0,0,1-3.92-.23V5.65Zm0,17.61a10.18,10.18,0,0,0,2,.14C80.59,23.4,83,22,83,19s-2.61-4.2-5.22-4.2a12.43,12.43,0,0,0-2,.14ZM90.37,5.65V25.2H87.81V5.65Z"/><path class="cls-1" d="M94.89,5.91A24.54,24.54,0,0,1,99.5,5.5c2.52,0,4.15.44,5.36,1.43a4.08,4.08,0,0,1,1.63,3.45,4.64,4.64,0,0,1-3.31,4.29v.06a5,5,0,0,1,4,4.9,5.27,5.27,0,0,1-1.65,3.92c-1.36,1.24-3.57,1.82-6.76,1.82a28.79,28.79,0,0,1-3.91-.23Zm2.52,8H99.7c2.67,0,4.24-1.4,4.24-3.28,0-2.29-1.74-3.19-4.3-3.19a10.69,10.69,0,0,0-2.23.17Zm0,9.37a14.57,14.57,0,0,0,2.12.11c2.61,0,5-1,5-3.8,0-2.67-2.3-3.77-5-3.77H97.41Z"/><path class="cls-1" d="M113.77,19.05l-2,6.15h-2.61l6.64-19.55h3l6.67,19.55h-2.69l-2.09-6.15Zm6.41-2-1.92-5.63c-.43-1.28-.72-2.44-1-3.57h-.06c-.29,1.16-.61,2.35-1,3.54l-1.91,5.66Z"/><path class="cls-1" d="M130.88,5.65v8.18h9.45V5.65h2.56V25.2h-2.56V16h-9.45V25.2h-2.53V5.65Z"/><path class="cls-1" d="M160.92,24.56a12.41,12.41,0,0,1-5.16.93c-5.51,0-9.66-3.48-9.66-9.89,0-6.12,4.15-10.27,10.21-10.27A10.44,10.44,0,0,1,161,6.2l-.61,2.06a9.26,9.26,0,0,0-3.94-.81c-4.59,0-7.63,2.93-7.63,8.06,0,4.79,2.75,7.86,7.51,7.86a10.17,10.17,0,0,0,4.12-.81Z"/><path class="cls-1" d="M166.57,5.65v8.67h.79l6.7-8.67h3l-7.39,9c3.22.44,4.46,2.41,5.48,5.05a50.34,50.34,0,0,0,2.15,5.54h-2.73a33.44,33.44,0,0,1-1.77-4.61c-.9-2.58-2.15-4.35-5.45-4.35h-.82v9h-2.49V5.65Z"/><path class="cls-1" d="M182.18,5.65v8.24c0,3.1-.06,5.65-.24,8.26l.06,0c1-2,2.21-4.14,3.63-6.47L192,5.65h2.52V25.2H192.1V16.87c0-3.16,0-5.48.23-7.94l-.09,0a59.19,59.19,0,0,1-3.63,6.58l-6.12,9.72H179.8V5.65Z"/><path class="cls-1" d="M201.26,5.65v8.24c0,3.1-.06,5.65-.24,8.26l.06,0c1-2,2.21-4.14,3.63-6.47L211,5.65h2.53V25.2h-2.38V16.87c0-3.16,0-5.48.23-7.94l-.09,0a59.07,59.07,0,0,1-3.62,6.58l-6.12,9.72h-2.7V5.65Zm3.19-4.09c.11.9.4,1.8,1.77,1.8s1.65-.84,1.77-1.8h1.94c-.14,1.91-1.3,3.1-3.77,3.1s-3.51-1.19-3.66-3.1Z"/><path class="cls-1" d="M240.79,5.65V25.2h-2.53V7.77h-9.08V25.2h-2.52V5.65Z"/><path class="cls-1" d="M261.9,15.22c0,6.73-4.09,10.3-9.08,10.3-5.16,0-8.79-4-8.79-9.92,0-6.21,3.86-10.27,9.08-10.27S261.9,9.42,261.9,15.22Zm-15.17.32c0,4.18,2.26,7.92,6.24,7.92s6.26-3.68,6.26-8.12c0-3.89-2-7.95-6.24-7.95S246.73,11.25,246.73,15.54Z"/><path class="cls-1" d="M267.35,5.65v6.21c0,2.66,1.39,4.17,4.15,4.17a7.64,7.64,0,0,0,3.85-1.1V5.65h2.56V25.2h-2.56V16.9h-.05a9.4,9.4,0,0,1-4.7,1.22c-2.58,0-5.78-1.1-5.78-5.89V5.65Z"/><path class="cls-1" d="M286,7.8h-5.94V5.65h14.47V7.8h-6V25.2H286Z"/><path class="cls-1" d="M312.39,15.22c0,6.73-4.09,10.3-9.08,10.3-5.16,0-8.79-4-8.79-9.92,0-6.21,3.86-10.27,9.08-10.27S312.39,9.42,312.39,15.22Zm-15.17.32c0,4.18,2.26,7.92,6.23,7.92s6.27-3.68,6.27-8.12c0-3.89-2-7.95-6.24-7.95S297.22,11.25,297.22,15.54Z"/><path class="cls-1" d="M315.66,5.91a24.54,24.54,0,0,1,4.61-.41c2.53,0,4.15.44,5.37,1.43a4.1,4.1,0,0,1,1.62,3.45,4.63,4.63,0,0,1-3.3,4.29v.06a5,5,0,0,1,4,4.9,5.31,5.31,0,0,1-1.65,3.92c-1.37,1.24-3.57,1.82-6.76,1.82a29,29,0,0,1-3.92-.23Zm2.53,8h2.29c2.67,0,4.23-1.4,4.23-3.28,0-2.29-1.74-3.19-4.29-3.19a10.62,10.62,0,0,0-2.23.17Zm0,9.37a14.41,14.41,0,0,0,2.11.11c2.61,0,5-1,5-3.8,0-2.67-2.29-3.77-5.05-3.77h-2.08Z"/><path class="cls-1" d="M347.85,15.22c0,6.73-4.09,10.3-9.08,10.3-5.16,0-8.78-4-8.78-9.92,0-6.21,3.85-10.27,9.07-10.27S347.85,9.42,347.85,15.22Zm-15.17.32c0,4.18,2.27,7.92,6.24,7.92s6.27-3.68,6.27-8.12c0-3.89-2-7.95-6.24-7.95S332.68,11.25,332.68,15.54Z"/><path class="cls-1" d="M7,42.6H1V40.45H15.49V42.6h-6V60H7Z"/><path class="cls-1" d="M27.78,50.83h-7.6v7.05h8.47V60h-11V40.45H28.22v2.12h-8v6.17h7.6Z"/><path class="cls-1" d="M45.53,40.45V60H43V42.57H36.51v5.91c0,4.24-.17,9-2.93,10.82a5.82,5.82,0,0,1-3,.93l-.32-2a4.42,4.42,0,0,0,2.06-1C33.9,55.62,34,51.82,34,48.69V40.45Z"/><path class="cls-1" d="M60,50.83h-7.6v7.05H60.9V60h-11V40.45H60.47v2.12h-8v6.17H60Z"/><path class="cls-1" d="M66.67,40.45v8.67h.78l6.7-8.67h3l-7.4,9c3.22.44,4.47,2.41,5.48,5.05A52.43,52.43,0,0,0,77.43,60H74.7a35.3,35.3,0,0,1-1.76-4.61C72,52.81,70.79,51,67.48,51h-.81v9h-2.5V40.45Z"/><path class="cls-1" d="M96.05,50c0,6.73-4.09,10.3-9.08,10.3-5.16,0-8.79-4-8.79-9.92,0-6.21,3.86-10.27,9.08-10.27S96.05,44.22,96.05,50Zm-15.17.32c0,4.18,2.26,7.92,6.24,7.92s6.26-3.68,6.26-8.12c0-3.89-2-8-6.23-8S80.88,46.05,80.88,50.34Z"/><path class="cls-1" d="M115.71,51.41c-.14-2.72-.32-6-.29-8.44h-.09c-.66,2.29-1.48,4.73-2.46,7.43l-3.45,9.48H107.5l-3.16-9.31c-.93-2.75-1.71-5.28-2.26-7.6H102c-.06,2.44-.2,5.72-.38,8.65L101.12,60H98.71l1.37-19.55h3.22l3.33,9.46c.81,2.4,1.48,4.55,2,6.58h.09c.5-2,1.19-4.12,2.06-6.58l3.48-9.46h3.22L118.67,60H116.2Z"/><path class="cls-1" d="M139,51.41c-.15-2.72-.32-6-.29-8.44h-.09c-.67,2.29-1.48,4.73-2.47,7.43l-3.45,9.48h-1.91l-3.16-9.31c-.93-2.75-1.72-5.28-2.27-7.6h0c-.06,2.44-.21,5.72-.38,8.65L124.44,60H122l1.36-19.55h3.22L130,49.91c.81,2.4,1.48,4.55,2,6.58H132c.49-2,1.19-4.12,2.06-6.58l3.48-9.46h3.22L142,60h-2.47Z"/><path class="cls-1" d="M146.48,40.45l3.88,8.32c.5,1.16,1,2.3,1.42,3.46h.06c.35-1,.73-2.15,1.22-3.54l3.05-8.24h2.66l-4.08,10A38.28,38.28,0,0,1,151,57.91a5.52,5.52,0,0,1-4.44,2.41,4.21,4.21,0,0,1-1.42-.18l.26-2a4.12,4.12,0,0,0,.93.08c2,0,3.22-2,3.83-3.36a1.19,1.19,0,0,0-.09-1.19l-6.5-13.17Z"/><path class="cls-1" d="M163.38,40.45v8.18h9.46V40.45h2.55V60h-2.55V50.83h-9.46V60h-2.52V40.45Z"/><path class="cls-1" d="M182.15,40.45v8.24c0,3.1-.06,5.65-.24,8.26l.06,0c1-2,2.21-4.14,3.63-6.47l6.32-10.06h2.52V60h-2.37V51.67c0-3.16,0-5.48.23-7.94l-.09,0a60.73,60.73,0,0,1-3.62,6.58L182.47,60h-2.7V40.45Z"/><path class="cls-1" d="M201.34,40.45v8.67h.79l6.7-8.67h3l-7.39,9c3.22.44,4.46,2.41,5.48,5.05A50.34,50.34,0,0,0,212.11,60h-2.73a33.94,33.94,0,0,1-1.77-4.61c-.9-2.58-2.15-4.35-5.45-4.35h-.82v9h-2.49V40.45Z"/><path class="cls-1" d="M217.87,53.85l-2,6.15h-2.61l6.65-19.55h3L229.59,60H226.9l-2.09-6.15Zm6.41-2-1.91-5.63c-.43-1.28-.73-2.44-1-3.57h0c-.29,1.16-.61,2.35-1,3.54l-1.91,5.66Z"/><path class="cls-1" d="M235,40.45V57.88h9V40.45h2.55V57.94l1.71.06L248,64.7h-2l-.17-4.7h-13.4V40.45Z"/><path class="cls-1" d="M253.75,40.45v8.24c0,3.1-.06,5.65-.24,8.26l.06,0c1-2,2.21-4.14,3.63-6.47l6.32-10.06H266V60h-2.37V51.67c0-3.16,0-5.48.23-7.94l-.09,0a60.73,60.73,0,0,1-3.62,6.58L254.06,60h-2.69V40.45Z"/><path class="cls-1" d="M287.16,50c0,6.73-4.09,10.3-9.08,10.3-5.17,0-8.79-4-8.79-9.92,0-6.21,3.86-10.27,9.08-10.27S287.16,44.22,287.16,50ZM272,50.34c0,4.18,2.26,7.92,6.23,7.92s6.27-3.68,6.27-8.12c0-3.89-2-8-6.24-8S272,46.05,272,50.34Z"/><path class="cls-1" d="M293,40.45v8.18h9.46V40.45H305V60h-2.55V50.83H293V60h-2.52V40.45Z"/><path class="cls-1" d="M311.86,40.45v8.18h9.46V40.45h2.55V60h-2.55V50.83h-9.46V60h-2.52V40.45Z"/><path class="cls-1" d="M330.77,40.45v7.31a19.24,19.24,0,0,1,2.32-.15c4,0,7.54,1.77,7.54,6.12a5.87,5.87,0,0,1-1.51,4.15c-1.59,1.68-4.32,2.29-7,2.29a28.79,28.79,0,0,1-3.91-.23V40.45Zm0,17.61a10.18,10.18,0,0,0,2,.14c2.78,0,5.19-1.42,5.19-4.38s-2.61-4.2-5.22-4.2a12.43,12.43,0,0,0-2,.14Zm14.59-17.61V60h-2.55V40.45Z"/><path class="cls-1" d="M352.26,40.45v8.24c0,3.1-.06,5.65-.24,8.26l.06,0c1-2,2.21-4.14,3.63-6.47L362,40.45h2.53V60h-2.38V51.67c0-3.16,0-5.48.23-7.94l-.09,0a59.07,59.07,0,0,1-3.62,6.58L352.58,60h-2.7V40.45Zm3.19-4.09c.11.9.4,1.8,1.77,1.8s1.65-.84,1.77-1.8h1.94c-.14,1.91-1.3,3.1-3.77,3.1s-3.51-1.19-3.66-3.1Z"/><path class="cls-1" d="M5.77,75.25V92.68h9V75.25h2.56V92.74L19,92.8l-.18,6.7h-2l-.17-4.7H3.25V75.25Z"/><path class="cls-1" d="M32.28,85.63h-7.6v7.05h8.47V94.8h-11V75.25H32.71v2.12h-8v6.17h7.6Z"/><path class="cls-1" d="M39,75.25v8.18H48.4V75.25H51V94.8H48.4V85.63H39V94.8H36.42V75.25Z"/><path class="cls-1" d="M59,77.4H53.1V75.25H67.57V77.4h-6V94.8H59Z"/><path class="cls-1" d="M69.74,75.48a29.64,29.64,0,0,1,4.85-.38c2.49,0,4.32.58,5.48,1.63a5.27,5.27,0,0,1,1.71,4.09A5.71,5.71,0,0,1,80.27,85a8.06,8.06,0,0,1-6,2.15,9,9,0,0,1-2-.17V94.8H69.74Zm2.53,9.43a8.66,8.66,0,0,0,2.08.2c3.05,0,4.91-1.48,4.91-4.18s-1.83-3.82-4.61-3.82a10.33,10.33,0,0,0-2.38.2Z"/></svg>