<svg width="100" height="100" viewBox="0 0 100 100" fill="none" xmlns="http://www.w3.org/2000/svg">
<g clip-path="url(#clip0_125_981)">
<path d="M50.4998 7.5C37.5695 7.5 24.6387 12.3786 14.7832 22.1369C-4.92775 41.6527 -4.92775 73.3469 14.7832 92.8631C15.4629 93.5374 16.5661 93.5381 17.2468 92.8652C17.9274 92.1923 17.9285 91.1 17.2489 90.4261L17.2468 90.424C-1.13318 72.226 -1.13318 42.7743 17.2468 24.5763C35.6267 6.37839 65.3729 6.37839 83.7529 24.5763C102.133 42.7743 102.133 72.226 83.7529 90.424C83.0719 91.0969 83.0705 92.1888 83.7501 92.8631C84.4297 93.5374 85.5326 93.5388 86.2136 92.8659L86.2164 92.8631C105.927 73.3473 105.927 41.653 86.2164 22.1369C76.3613 12.3786 63.4305 7.5 50.4998 7.5ZM50.4998 12.7815C39.1346 12.7815 27.7627 17.0782 19.0941 25.6614C1.75638 42.8274 1.75638 70.685 19.0941 87.851C19.4271 88.1945 19.9785 88.2056 20.3255 87.8759C20.6724 87.5461 20.6836 87.0002 20.3506 86.6566C20.3425 86.6484 20.3342 86.6401 20.3255 86.6318C3.65349 70.1245 3.65349 43.3882 20.3255 26.8813C28.6615 18.6279 39.5777 14.506 50.4998 14.506C50.9809 14.5129 51.3763 14.1321 51.3829 13.6558C51.3895 13.1795 51.0053 12.788 50.5242 12.7815C50.5165 12.7811 50.5082 12.7811 50.4998 12.7815ZM35.4429 63.3481C35.8062 63.6156 36.2603 63.7327 36.7093 63.6746L67.3914 48.1404C67.9037 49.6974 68.8634 51.1266 70.2501 52.2134C74.0052 55.1563 79.5112 54.5221 82.4836 50.8042C85.456 47.0864 84.8154 41.6348 81.0603 38.6919C77.3053 35.7489 71.7992 36.3832 68.8269 40.101C67.7294 41.4737 67.1264 43.0831 66.9889 44.715L36.3068 60.2492C34.7261 60.4087 34.1687 62.4084 35.4429 63.3481ZM72.4121 49.5091C70.1334 47.7231 69.7544 44.4979 71.5582 42.2417C73.362 39.9855 76.6195 39.6102 78.8983 41.3962C81.1771 43.1821 81.556 46.4074 79.7522 48.6636C77.9484 50.9198 74.6909 51.295 72.4121 49.5091ZM72.9527 48.833C74.8302 50.3045 77.5832 49.9874 79.0694 48.1284C79.3735 47.7593 79.3173 47.216 78.9442 46.9152C78.5713 46.6142 78.0226 46.6698 77.7189 47.0392C77.7137 47.0457 77.7087 47.0519 77.7035 47.0584C76.8015 48.1866 75.173 48.3742 74.0335 47.4811C73.6606 47.1801 73.1119 47.2357 72.8081 47.6051C72.5041 47.9743 72.5602 48.5175 72.9333 48.8183C72.9393 48.823 72.9459 48.8281 72.9527 48.833Z" fill="url(#paint0_linear_125_981)"/>
</g>
<defs>
<linearGradient id="paint0_linear_125_981" x1="50.4998" y1="7.5" x2="50.4998" y2="93.3697" gradientUnits="userSpaceOnUse">
<stop stop-color="#201F94"/>
<stop offset="1" stop-color="#201F94" stop-opacity="0.1"/>
</linearGradient>
<clipPath id="clip0_125_981">
<rect width="100" height="100" fill="white"/>
</clipPath>
</defs>
</svg>
